<svg width="450" height="450" viewBox="0 0 450 450" fill="none" xmlns="http://www.w3.org/2000/svg">
<path d="M116.955 30.672H30.51V108.009H116.955V30.672Z" fill="#FAFAFA"/>
<path d="M117 108C117 108 117 107.505 117 106.56C117 105.615 117 104.229 117 102.42C117 98.82 117 93.483 116.946 86.724C116.946 73.224 116.892 53.901 116.847 30.654L117.045 30.852H30.645L30.87 30.618C30.87 58.761 30.87 85.2389 30.87 107.964L30.672 107.757L93.195 107.865L110.7 108H115.371H116.577H115.38H110.754L93.159 108.054L30.51 108.153H30.303V108C30.303 85.275 30.303 58.797 30.303 30.654V30.429H30.546H116.946H117.144V30.618C117.144 53.91 117.063 73.269 117.045 86.805C117.045 93.5459 117 98.8379 116.991 102.465C116.991 104.265 116.991 105.633 116.991 106.569C116.991 107.505 117 108 117 108Z" fill="#E0E0E0"/>
<path d="M63.6569 44.4149C63.6569 44.5499 59.1029 44.6489 53.4959 44.6489C47.8889 44.6489 43.3259 44.5499 43.3259 44.4149C43.3259 44.2799 47.8799 44.1899 53.4959 44.1899C59.1119 44.1899 63.6569 44.2889 63.6569 44.4149Z" fill="#E0E0E0"/>
<path d="M100.287 50.229C100.287 50.355 87.7861 50.454 72.3871 50.454C56.9881 50.454 44.4871 50.355 44.4871 50.229C44.4871 50.103 56.9791 49.995 72.3871 49.995C87.7951 49.995 100.287 50.094 100.287 50.229Z" fill="#E0E0E0"/>
<path d="M47.124 60.0659H43.479V63.7109H47.124V60.0659Z" fill="#E0E0E0"/>
<path d="M56.0881 60.0659H52.4431V63.7109H56.0881V60.0659Z" fill="#E0E0E0"/>
<path d="M65.2231 59.8949H61.5781V63.5399H65.2231V59.8949Z" fill="#E0E0E0"/>
<path d="M74.0161 60.0659H70.3711V63.7109H74.0161V60.0659Z" fill="#E0E0E0"/>
<path d="M82.98 60.0659H79.335V63.7109H82.98V60.0659Z" fill="#E0E0E0"/>
<path d="M91.9531 60.0659H88.3081V63.7109H91.9531V60.0659Z" fill="#E0E0E0"/>
<path d="M100.917 60.0659H97.272V63.7109H100.917V60.0659Z" fill="#EBEBEB"/>
<path d="M47.124 67.8059H43.479V71.4509H47.124V67.8059Z" fill="#EBEBEB"/>
<path d="M56.0881 67.8059H52.4431V71.4509H56.0881V67.8059Z" fill="#E0E0E0"/>
<path d="M65.052 67.8059H61.407V71.4509H65.052V67.8059Z" fill="#EBEBEB"/>
<path d="M74.0161 67.8059H70.3711V71.4509H74.0161V67.8059Z" fill="#E0E0E0"/>
<path d="M82.98 67.8059H79.335V71.4509H82.98V67.8059Z" fill="#E0E0E0"/>
<path d="M92.115 67.635H88.47V71.28H92.115V67.635Z" fill="#E0E0E0"/>
<path d="M100.917 67.8059H97.272V71.4509H100.917V67.8059Z" fill="#E0E0E0"/>
<path d="M47.124 75.5459H43.479V79.1909H47.124V75.5459Z" fill="#E0E0E0"/>
<path d="M56.259 75.3839H52.614V79.0289H56.259V75.3839Z" fill="#E0E0E0"/>
<path d="M65.052 75.5459H61.407V79.1909H65.052V75.5459Z" fill="#E0E0E0"/>
<path d="M74.0161 75.5459H70.3711V79.1909H74.0161V75.5459Z" fill="#EBEBEB"/>
<path d="M82.98 75.5459H79.335V79.1909H82.98V75.5459Z" fill="#E0E0E0"/>
<path d="M91.9531 75.5459H88.3081V79.1909H91.9531V75.5459Z" fill="#E0E0E0"/>
<path d="M100.917 75.5459H97.272V79.1909H100.917V75.5459Z" fill="#E0E0E0"/>
<path d="M47.124 83.286H43.479V86.931H47.124V83.286Z" fill="#E0E0E0"/>
<path d="M56.0881 83.286H52.4431V86.931H56.0881V83.286Z" fill="#E0E0E0"/>
<path d="M65.052 83.286H61.407V86.931H65.052V83.286Z" fill="#E0E0E0"/>
<path d="M74.187 83.1239H70.542V86.7689H74.187V83.1239Z" fill="#E0E0E0"/>
<path d="M82.98 83.286H79.335V86.931H82.98V83.286Z" fill="#E0E0E0"/>
<path d="M91.9531 83.286H88.3081V86.931H91.9531V83.286Z" fill="#EBEBEB"/>
<path d="M100.917 83.286H97.272V86.931H100.917V83.286Z" fill="#E0E0E0"/>
<path d="M47.124 91.0349H43.479V94.6799H47.124V91.0349Z" fill="#E0E0E0"/>
<path d="M56.0881 91.0349H52.4431V94.6799H56.0881V91.0349Z" fill="#EBEBEB"/>
<path d="M65.052 91.0349H61.407V94.6799H65.052V91.0349Z" fill="#E0E0E0"/>
<path d="M74.0161 91.0349H70.3711V94.6799H74.0161V91.0349Z" fill="#E0E0E0"/>
<path d="M82.98 91.0349H79.335V94.6799H82.98V91.0349Z" fill="#E0E0E0"/>
<path d="M92.115 90.864H88.47V94.509H92.115V90.864Z" fill="#E0E0E0"/>
<path d="M100.917 91.0349H97.272V94.6799H100.917V91.0349Z" fill="#E0E0E0"/>
<path d="M423.45 32.2469H362.214V93.4829H423.45V32.2469Z" fill="white"/>
<path d="M423.45 93.492C423.45 93.492 423.45 93.384 423.45 93.195C423.45 93.006 423.45 92.709 423.45 92.295C423.45 91.539 423.45 90.432 423.45 89.001C423.45 86.103 423.45 81.891 423.396 76.536C423.396 65.817 423.333 50.535 423.288 32.202L423.495 32.409H362.295L362.529 32.175C362.529 54.603 362.529 75.618 362.529 93.42L362.331 93.213L406.656 93.321L419.121 93.375H422.424H423.27H423.567H422.469H419.202L406.791 93.429L362.331 93.528H362.124V93.33C362.124 75.528 362.124 54.513 362.124 32.13V31.896H362.358H423.558H423.765V32.094C423.72 50.481 423.684 65.808 423.657 76.554C423.657 81.891 423.657 86.094 423.603 88.974C423.603 90.396 423.603 91.485 423.603 92.232C423.603 92.592 423.603 92.862 423.603 93.06C423.603 93.258 423.45 93.492 423.45 93.492Z" fill="#E0E0E0"/>
<path d="M423.189 47.925C423.189 48.051 409.536 48.159 392.697 48.159C375.858 48.159 362.214 48.051 362.214 47.925C362.214 47.799 375.858 47.7 392.697 47.7C409.536 47.7 423.189 47.799 423.189 47.925Z" fill="#E0E0E0"/>
<path d="M368.172 41.5079C369.131 41.5079 369.909 40.7303 369.909 39.7709C369.909 38.8116 369.131 38.0339 368.172 38.0339C367.213 38.0339 366.435 38.8116 366.435 39.7709C366.435 40.7303 367.213 41.5079 368.172 41.5079Z" fill="#E0E0E0"/>
<path d="M373.464 41.5079C374.423 41.5079 375.201 40.7303 375.201 39.7709C375.201 38.8116 374.423 38.0339 373.464 38.0339C372.505 38.0339 371.727 38.8116 371.727 39.7709C371.727 40.7303 372.505 41.5079 373.464 41.5079Z" fill="#E0E0E0"/>
<path d="M380.493 39.771C380.493 40.1145 380.391 40.4503 380.2 40.736C380.009 41.0216 379.738 41.2443 379.421 41.3757C379.103 41.5072 378.754 41.5416 378.417 41.4746C378.08 41.4076 377.771 41.2421 377.528 40.9992C377.285 40.7563 377.119 40.4468 377.052 40.1098C376.985 39.7729 377.02 39.4236 377.151 39.1062C377.283 38.7888 377.505 38.5176 377.791 38.3267C378.077 38.1358 378.413 38.034 378.756 38.034C378.984 38.0328 379.211 38.0769 379.422 38.1638C379.633 38.2506 379.825 38.3785 379.987 38.5401C380.148 38.7016 380.276 38.8936 380.363 39.1048C380.45 39.3161 380.494 39.5425 380.493 39.771Z" fill="#E0E0E0"/>
<path d="M374.616 65.934C377.365 65.934 379.593 63.7057 379.593 60.957C379.593 58.2083 377.365 55.98 374.616 55.98C371.867 55.98 369.639 58.2083 369.639 60.957C369.639 63.7057 371.867 65.934 374.616 65.934Z" fill="#EBEBEB"/>
<path d="M379.593 79.1999C379.593 80.1843 379.301 81.1465 378.754 81.965C378.207 82.7834 377.43 83.4214 376.521 83.7981C375.611 84.1748 374.61 84.2733 373.645 84.0813C372.68 83.8892 371.793 83.4152 371.097 82.7192C370.401 82.0231 369.927 81.1363 369.735 80.1709C369.543 79.2054 369.641 78.2047 370.018 77.2953C370.394 76.3859 371.032 75.6086 371.851 75.0617C372.669 74.5148 373.632 74.2229 374.616 74.2229C375.936 74.2229 377.202 74.7473 378.135 75.6806C379.069 76.614 379.593 77.8799 379.593 79.1999Z" fill="#EBEBEB"/>
<path d="M414.306 60.552C414.306 60.678 407.502 60.786 399.105 60.786C390.708 60.786 383.904 60.678 383.904 60.552C383.904 60.426 390.708 60.318 399.105 60.318C407.502 60.318 414.306 60.417 414.306 60.552Z" fill="#E0E0E0"/>
<path d="M394.857 79.1369C391.264 79.4484 387.65 79.4484 384.057 79.1369C387.65 78.8255 391.264 78.8255 394.857 79.1369Z" fill="#E0E0E0"/>
<path d="M414.306 102.798C424.968 102.798 433.611 94.1548 433.611 83.493C433.611 72.8311 424.968 64.188 414.306 64.188C403.644 64.188 395.001 72.8311 395.001 83.493C395.001 94.1548 403.644 102.798 414.306 102.798Z" fill="#E0E0E0"/>
<path d="M416.124 76.167H414.324V90.495H416.124V76.167Z" fill="white"/>
<path d="M422.388 82.4309H408.06V84.2309H422.388V82.4309Z" fill="white"/>
<path d="M53.7229 245.763C63.5415 241.607 68.1323 230.279 63.9767 220.46C59.821 210.641 48.4926 206.051 38.674 210.206C28.8553 214.362 24.2646 225.69 28.4202 235.509C32.5758 245.327 43.9042 249.918 53.7229 245.763Z" fill="#E0E0E0"/>
<path d="M48.0151 220.662H46.2151V234.99H48.0151V220.662Z" fill="white"/>
<path d="M54.2789 226.926H39.9509V228.726H54.2789V226.926Z" fill="white"/>
<path d="M280.278 313.677H149.166V374.139H280.278V313.677Z" fill="#F5F5F5"/>
<path d="M277.2 371.295H152.163V316.854H277.2V371.295ZM153 370.476H276.3V317.7H153V370.476Z" fill="#E0E0E0"/>
<path d="M312.309 313.677H280.278V374.139H312.309V313.677Z" fill="#E0E0E0"/>
<path d="M152.577 333.702H276.777C276.82 333.702 276.861 333.685 276.892 333.654C276.922 333.624 276.939 333.583 276.939 333.54C276.939 333.497 276.922 333.456 276.892 333.425C276.861 333.395 276.82 333.378 276.777 333.378H152.577C152.534 333.378 152.493 333.395 152.462 333.425C152.432 333.456 152.415 333.497 152.415 333.54C152.415 333.583 152.432 333.624 152.462 333.654C152.493 333.685 152.534 333.702 152.577 333.702Z" fill="#E0E0E0"/>
<path d="M215.1 333.54C215.433 328.07 215.433 322.585 215.1 317.115C215.091 317.077 215.07 317.044 215.04 317.02C215.01 316.996 214.972 316.983 214.934 316.983C214.895 316.983 214.858 316.996 214.827 317.02C214.797 317.044 214.776 317.077 214.767 317.115C214.439 322.585 214.439 328.07 214.767 333.54C214.767 333.573 214.78 333.605 214.804 333.629C214.828 333.653 214.86 333.666 214.893 333.666C214.927 333.666 214.959 333.653 214.982 333.629C215.006 333.605 215.019 333.573 215.019 333.54H215.1Z" fill="#E0E0E0"/>
<path d="M248.49 325.323C248.49 325.658 248.391 325.985 248.205 326.263C248.019 326.541 247.755 326.758 247.445 326.886C247.136 327.014 246.796 327.048 246.468 326.982C246.14 326.917 245.838 326.756 245.602 326.519C245.365 326.283 245.204 325.981 245.138 325.653C245.073 325.325 245.107 324.985 245.235 324.675C245.363 324.366 245.58 324.102 245.858 323.916C246.136 323.73 246.463 323.631 246.798 323.631C247.247 323.631 247.677 323.809 247.994 324.126C248.312 324.444 248.49 324.874 248.49 325.323Z" fill="#E0E0E0"/>
<path d="M183.321 325.323C183.321 325.658 183.222 325.985 183.036 326.263C182.85 326.541 182.586 326.758 182.277 326.886C181.967 327.014 181.627 327.048 181.299 326.982C180.971 326.917 180.669 326.756 180.433 326.519C180.196 326.283 180.035 325.981 179.97 325.653C179.904 325.325 179.938 324.985 180.066 324.675C180.194 324.366 180.411 324.102 180.689 323.916C180.967 323.73 181.294 323.631 181.629 323.631C182.078 323.631 182.508 323.809 182.825 324.126C183.143 324.444 183.321 324.874 183.321 325.323Z" fill="#E0E0E0"/>
<path d="M216.351 344.079C216.351 344.414 216.252 344.741 216.066 345.019C215.88 345.297 215.616 345.514 215.307 345.642C214.997 345.77 214.657 345.804 214.329 345.738C214.001 345.673 213.699 345.512 213.463 345.275C213.226 345.039 213.065 344.737 213 344.409C212.934 344.081 212.968 343.741 213.096 343.431C213.224 343.122 213.441 342.858 213.719 342.672C213.997 342.486 214.324 342.387 214.659 342.387C215.108 342.387 215.538 342.565 215.855 342.883C216.173 343.2 216.351 343.63 216.351 344.079Z" fill="#E0E0E0"/>
<path d="M164.844 374.139L158.094 412.101H161.892L174.33 374.139H164.844Z" fill="#E0E0E0"/>
<path d="M270.999 374.139L276.642 412.164H272.844L261.504 374.139H270.999Z" fill="#E0E0E0"/>
<path d="M296.343 374.139L302.742 412.164H298.944L286.848 374.139H296.343Z" fill="#E0E0E0"/>
<path d="M216.234 361.188C216.234 361.523 216.135 361.85 215.948 362.129C215.762 362.407 215.497 362.624 215.188 362.752C214.878 362.88 214.537 362.913 214.209 362.847C213.88 362.781 213.579 362.619 213.342 362.381C213.106 362.144 212.946 361.841 212.882 361.512C212.817 361.184 212.852 360.843 212.981 360.534C213.111 360.225 213.329 359.961 213.609 359.777C213.888 359.592 214.216 359.494 214.551 359.496C214.998 359.498 215.426 359.678 215.742 359.995C216.057 360.312 216.234 360.741 216.234 361.188Z" fill="#E0E0E0"/>
<path d="M152.577 352.431H276.777C276.815 352.422 276.848 352.401 276.872 352.371C276.896 352.34 276.909 352.303 276.909 352.264C276.909 352.226 276.896 352.188 276.872 352.158C276.848 352.128 276.815 352.107 276.777 352.098H152.577C152.54 352.107 152.506 352.128 152.482 352.158C152.458 352.188 152.445 352.226 152.445 352.264C152.445 352.303 152.458 352.34 152.482 352.371C152.506 352.401 152.54 352.422 152.577 352.431Z" fill="#E0E0E0"/>
<path d="M415.287 412.272C415.287 412.398 327.267 412.506 218.709 412.506C110.151 412.506 22.113 412.398 22.113 412.272C22.113 412.146 110.115 412.038 218.709 412.038C327.303 412.038 415.287 412.137 415.287 412.272Z" fill="#263238"/>
<path d="M347.715 61.848H77.814V299.646H347.715V61.848Z" fill="white"/>
<path d="M347.715 206.631H77.814V246.807H347.715V206.631Z" fill="white"/>
<path d="M347.715 160.668H77.814V206.64H347.715V160.668Z" fill="#F5F5F5"/>
<path d="M347.715 253.377H77.814V299.349H347.715V253.377Z" fill="#F5F5F5"/>
<path d="M240.777 174.978C240.777 175.113 208.944 175.221 169.677 175.221C130.41 175.221 98.5769 175.113 98.5769 174.978C98.5769 174.843 130.401 174.744 169.677 174.744C208.953 174.744 240.777 174.852 240.777 174.978Z" fill="#263238"/>
<path d="M158.616 187.776C158.616 187.902 145.116 188.01 128.403 188.01C111.69 188.01 98.1899 187.902 98.1899 187.776C98.1899 187.65 111.69 187.542 128.403 187.542C145.116 187.542 158.616 187.65 158.616 187.776Z" fill="#263238"/>
<path d="M240.777 220.329C240.777 220.455 208.944 220.563 169.677 220.563C130.41 220.563 98.5769 220.455 98.5769 220.329C98.5769 220.203 130.401 220.095 169.677 220.095C208.953 220.095 240.777 220.194 240.777 220.329Z" fill="#263238"/>
<path d="M158.616 233.1C158.616 233.235 145.116 233.334 128.403 233.334C111.69 233.334 98.1899 233.235 98.1899 233.1C98.1899 232.965 111.69 232.866 128.403 232.866C145.116 232.866 158.616 232.992 158.616 233.1Z" fill="#263238"/>
<path d="M240.777 265.671C240.777 265.797 208.944 265.905 169.677 265.905C130.41 265.905 98.5769 265.797 98.5769 265.671C98.5769 265.545 130.401 265.437 169.677 265.437C208.953 265.437 240.777 265.5 240.777 265.671Z" fill="#263238"/>
<path d="M158.616 278.46C158.616 278.595 145.116 278.694 128.403 278.694C111.69 278.694 98.1899 278.595 98.1899 278.46C98.1899 278.325 111.69 278.226 128.403 278.226C145.116 278.226 158.616 278.334 158.616 278.46Z" fill="#263238"/>
<path d="M347.715 61.551H77.814V84.24H347.715V61.551Z" fill="#E0E0E0"/>
<path d="M347.715 82.0891H77.814V104.778H347.715V82.0891Z" fill="#F5F5F5"/>
<path d="M94.0589 72.1801C94.0536 72.7435 93.8815 73.2928 93.5644 73.7586C93.2473 74.2244 92.7993 74.5859 92.277 74.7974C91.7547 75.0089 91.1815 75.0611 90.6296 74.9472C90.0778 74.8334 89.5719 74.5586 89.176 74.1577C88.7801 73.7567 88.5117 73.2475 88.4048 72.6943C88.2979 72.141 88.3573 71.5685 88.5754 71.0489C88.7934 70.5293 89.1605 70.0859 89.6303 69.7747C90.1 69.4635 90.6514 69.2983 91.2149 69.3001C91.5914 69.3 91.9642 69.3748 92.3116 69.5199C92.659 69.6651 92.9742 69.8778 93.2387 70.1457C93.5033 70.4136 93.712 70.7314 93.8528 71.0806C93.9936 71.4299 94.0637 71.8036 94.0589 72.1801Z" fill="#263238"/>
<path d="M104.517 72.18C104.512 72.7446 104.339 73.295 104.02 73.7613C103.702 74.2276 103.252 74.589 102.729 74.7997C102.205 75.0104 101.63 75.0609 101.078 74.9449C100.525 74.8288 100.019 74.5514 99.6245 74.1477C99.2297 73.7441 98.9635 73.2324 98.8597 72.6774C98.7559 72.1223 98.8191 71.549 99.0413 71.0299C99.2635 70.5109 99.6348 70.0694 100.108 69.7615C100.581 69.4535 101.135 69.2929 101.7 69.3C102.455 69.3095 103.176 69.618 103.704 70.1579C104.232 70.6977 104.524 71.4249 104.517 72.18Z" fill="#263238"/>
<path d="M114.966 72.18C114.961 72.7431 114.789 73.2921 114.472 73.7577C114.155 74.2233 113.708 74.5847 113.186 74.7965C112.664 75.0083 112.092 75.061 111.54 74.9479C110.988 74.8348 110.482 74.561 110.086 74.1609C109.69 73.7608 109.421 73.2525 109.313 72.6998C109.205 72.1471 109.263 71.5749 109.48 71.0551C109.696 70.5354 110.062 70.0914 110.531 69.7791C110.999 69.4667 111.55 69.3001 112.113 69.3C112.49 69.3 112.863 69.3747 113.211 69.5198C113.559 69.6648 113.875 69.8774 114.14 70.1452C114.405 70.413 114.615 70.7307 114.757 71.08C114.898 71.4292 114.969 71.8031 114.966 72.18Z" fill="#263238"/>
<path d="M347.769 299.7C347.769 298.188 347.715 207 347.634 61.5961L347.769 61.7761L78.0029 61.8301L78.1649 61.5961C78.1649 146.115 78.1649 226.611 78.1649 299.7L78.0119 299.484L347.796 299.7L78.0119 299.916H77.8499V299.7C77.8499 226.611 77.8499 146.115 77.8499 61.5961V61.3621H78.0389L347.805 61.4071H347.94V61.5961C347.814 207 347.769 298.143 347.769 299.7Z" fill="#263238"/>
<path d="M315.639 118H237.364C233.85 118 231.001 120.314 231.001 123.168V137.831C231.001 140.686 233.85 143 237.364 143H315.639C319.153 143 322.001 140.686 322.001 137.831V123.168C322.001 120.314 319.153 118 315.639 118Z" fill="#FDB640"/>
<path d="M324.009 178.281H284.58C280.181 178.281 276.615 181.847 276.615 186.246V186.255C276.615 190.654 280.181 194.22 284.58 194.22H324.009C328.408 194.22 331.974 190.654 331.974 186.255V186.246C331.974 181.847 328.408 178.281 324.009 178.281Z" fill="#E0E0E0"/>
<path d="M324 240.237H284.58C283.534 240.237 282.498 240.031 281.532 239.631C280.566 239.231 279.687 238.644 278.948 237.904C278.208 237.165 277.622 236.287 277.221 235.32C276.821 234.354 276.615 233.318 276.615 232.272C276.615 230.16 277.454 228.134 278.948 226.64C280.442 225.146 282.468 224.307 284.58 224.307H324C325.046 224.307 326.082 224.513 327.048 224.913C328.014 225.314 328.892 225.9 329.632 226.64C330.372 227.38 330.958 228.258 331.359 229.224C331.759 230.19 331.965 231.226 331.965 232.272C331.965 233.318 331.759 234.354 331.359 235.32C330.958 236.287 330.372 237.165 329.632 237.904C328.892 238.644 328.014 239.231 327.048 239.631C326.082 240.031 325.046 240.237 324 240.237Z" fill="#EBEBEB"/>
<path d="M324.009 269.388H284.58C280.181 269.388 276.615 272.954 276.615 277.353V277.362C276.615 281.761 280.181 285.327 284.58 285.327H324.009C328.408 285.327 331.974 281.761 331.974 277.362V277.353C331.974 272.954 328.408 269.388 324.009 269.388Z" fill="#E0E0E0"/>
<path d="M71.1 346.644C63.9 349.173 54.414 346.914 48.222 342.387C42.03 337.86 37.575 331.389 33.633 324.819C31.941 322.011 30.303 319.095 29.763 315.819C29.223 312.543 30.015 308.961 32.517 306.819C36.414 303.543 42.417 305.199 46.791 307.719C53.6859 311.74 59.5003 317.376 63.7334 324.143C67.9665 330.91 70.4915 338.604 71.091 346.563" fill="#FDB640"/>
<path d="M63.3149 363.969C58.9679 369.702 51.4979 372.258 44.3159 372.591C37.1339 372.924 30.0239 370.935 23.3009 368.352C20.8619 367.452 18.1979 366.138 17.3609 363.663C17.0971 362.707 17.0758 361.7 17.299 360.734C17.5221 359.767 17.9826 358.872 18.6389 358.128C19.969 356.656 21.6324 355.523 23.4899 354.825C30.0959 352.008 37.6739 351.873 44.6309 353.682C51.5879 355.491 57.6719 359.514 63.3149 363.969Z" fill="#FDB640"/>
<path d="M71.19 315.63C65.205 315.756 60.669 310.509 57.951 305.163C54.1766 297.694 52.914 289.206 54.351 280.962C54.9 277.893 56.052 274.599 58.797 273.123C61.542 271.647 65.205 272.61 67.536 274.743C69.867 276.876 71.136 279.918 72.036 282.933C75.258 293.346 74.565 305.307 71.136 315.63" fill="#FDB640"/>
<path d="M90.8998 348.777C80.6848 331.389 78.9838 310.077 85.0138 290.871C85.9948 287.757 87.8398 284.184 91.1068 283.977C94.7068 283.743 96.9928 287.775 97.9918 291.258C101.493 303.48 100.746 316.458 99.9718 329.139C99.4948 336.96 96.8128 343.638 90.8998 348.777Z" fill="#FDB640"/>
<path d="M101.502 355.923C103.402 349.965 106.615 344.51 110.905 339.96C115.195 335.41 120.452 331.881 126.288 329.634C128.988 328.617 132.453 328.032 134.469 330.111C136.485 332.19 135.846 335.511 134.577 338.094C132.516 342.198 129.177 345.492 125.847 348.66C122.823 351.54 119.682 354.429 115.857 356.103C112.032 357.777 104.994 358.209 101.502 355.923Z" fill="#FDB640"/>
<path d="M38.1599 311.256C38.2123 311.318 38.2729 311.372 38.3399 311.418L38.8889 311.841L41.0309 313.443L42.5879 314.595C43.1459 315.027 43.7309 315.495 44.3879 316.044C45.6479 317.097 47.1419 318.24 48.6449 319.644L51.0569 321.84C51.8849 322.605 52.6949 323.469 53.5589 324.324C55.3139 326.016 57.0149 327.987 58.8509 330.021C62.7037 334.561 66.2228 339.373 69.3809 344.421C72.4719 349.502 75.1939 354.799 77.5259 360.27C78.5249 362.817 79.5329 365.22 80.2259 367.551C80.6039 368.712 81.0179 369.81 81.3329 370.899L82.2329 374.031C82.8359 376.02 83.1869 377.865 83.5649 379.431C83.7449 380.232 83.9339 380.979 84.0689 381.672C84.2039 382.365 84.3029 383.004 84.4019 383.571C84.5999 384.687 84.7619 385.569 84.8789 386.208L85.0139 386.892C85.0196 386.971 85.041 387.047 85.0769 387.117C85.0871 387.039 85.0871 386.961 85.0769 386.883C85.0769 386.703 85.0229 386.469 84.9869 386.19C84.8969 385.551 84.7709 384.66 84.5999 383.544C84.5189 382.968 84.4199 382.329 84.3119 381.627C84.2039 380.925 84.0149 380.187 83.8529 379.377C83.4929 377.766 83.1689 375.903 82.5839 373.914C82.3049 372.906 82.0259 371.853 81.6839 370.755C81.3419 369.657 80.9729 368.55 80.5949 367.389C79.8839 365.049 78.8939 362.628 77.8949 360.063C75.5953 354.559 72.8877 349.234 69.7949 344.133C66.6235 339.074 63.0765 334.261 59.1839 329.733C57.3839 327.699 55.5839 325.728 53.8379 324.045C52.9379 323.19 52.1549 322.326 51.3089 321.57L48.8699 319.392C47.3489 317.979 45.8369 316.854 44.5499 315.792C43.9019 315.288 43.3079 314.793 42.7499 314.37L41.1659 313.254L38.9699 311.724L38.3939 311.337C38.2319 311.292 38.1689 311.247 38.1599 311.256Z" fill="#263238"/>
<path d="M24.6328 359.451C24.8705 359.439 25.1061 359.4 25.3348 359.334C25.7938 359.253 26.4508 359.082 27.3238 358.938C29.7671 358.474 32.2386 358.174 34.7218 358.038C42.9301 357.575 51.1378 358.956 58.7428 362.079C66.3208 365.271 73.0867 370.12 78.5428 376.272C80.1942 378.132 81.7215 380.098 83.1148 382.158C83.6188 382.878 83.9608 383.472 84.2308 383.85C84.3547 384.053 84.4899 384.248 84.6358 384.435C84.5488 384.215 84.4403 384.004 84.3118 383.805C84.0688 383.4 83.7538 382.788 83.2678 382.05C81.917 379.942 80.4129 377.935 78.7678 376.047C73.3589 369.759 66.5534 364.824 58.8957 361.638C51.238 358.451 42.9407 357.101 34.6678 357.696C32.1759 357.866 29.7001 358.221 27.2608 358.758C26.3608 358.929 25.7398 359.136 25.2808 359.253C24.8218 359.37 24.6328 359.442 24.6328 359.451Z" fill="#263238"/>
<path d="M62.3608 280.062C62.3504 280.152 62.3504 280.242 62.3608 280.332L62.5228 281.115C62.6758 281.835 62.9008 282.834 63.1888 284.112C63.7828 286.704 64.6738 290.457 65.8078 295.083C68.0578 304.335 71.3248 317.079 74.7358 331.2C76.4278 338.274 77.9578 345.024 79.2358 351.171C80.5138 357.318 81.6388 362.871 82.4578 367.587C82.8988 369.918 83.2318 372.087 83.5468 373.887C83.8618 375.687 84.1138 377.361 84.3028 378.675C84.4918 379.989 84.6628 380.979 84.7798 381.708C84.8338 382.032 84.8788 382.293 84.9148 382.491C84.9208 382.584 84.9421 382.675 84.9778 382.761C84.9878 382.671 84.9878 382.581 84.9778 382.491C84.9778 382.284 84.9238 382.023 84.8878 381.69L84.5998 378.675C84.4378 377.352 84.2128 375.741 83.9158 373.869C83.6188 371.997 83.3218 369.873 82.8988 367.524C82.1248 362.826 81.0988 357.255 79.7758 351.081C78.4528 344.907 76.9588 338.166 75.2758 331.092C71.8648 316.962 68.5438 304.236 66.2038 295.002C65.0428 290.412 64.1068 286.677 63.4408 284.067C63.1258 282.798 62.8648 281.808 62.6848 281.097C62.6038 280.773 62.5318 280.521 62.4778 280.323C62.4473 280.232 62.4081 280.145 62.3608 280.062Z" fill="#263238"/>
<path d="M85.8239 381.384C85.8517 381.317 85.8728 381.248 85.8869 381.177C85.8869 381.006 85.9679 380.799 86.0309 380.547C86.1479 379.962 86.3189 379.152 86.5349 378.126C86.9669 376.029 87.5339 372.978 88.1909 369.189C89.5049 361.629 91.0529 351.117 92.0069 339.435C92.4749 333.594 92.7269 328.014 92.8439 322.938C92.9609 317.862 92.8439 313.281 92.7269 309.438C92.7269 307.521 92.5469 305.784 92.4659 304.263C92.3849 302.742 92.2859 301.428 92.1869 300.357C92.0879 299.286 92.0159 298.503 91.9529 297.9C91.9529 297.639 91.9529 297.432 91.8809 297.261C91.8903 297.189 91.8903 297.117 91.8809 297.045C91.8709 297.117 91.8709 297.189 91.8809 297.261C91.8809 297.441 91.8809 297.648 91.8809 297.909C91.8809 298.512 91.9529 299.331 92.0159 300.375C92.0789 301.419 92.1599 302.751 92.2139 304.281C92.2679 305.811 92.3759 307.53 92.4029 309.447C92.5199 313.281 92.5289 317.853 92.4029 322.947C92.2769 328.041 91.9889 333.585 91.5029 339.417C90.5489 351.117 89.0549 361.584 87.8309 369.117C87.2189 372.906 86.6969 375.966 86.3189 378.117C86.1479 379.143 86.0039 379.917 85.9049 380.547C85.9049 380.808 85.8329 381.015 85.8059 381.186C85.8 381.252 85.8061 381.32 85.8239 381.384Z" fill="#263238"/>
<path d="M85.0679 383.598C85.1697 383.404 85.257 383.202 85.3289 382.995L86.0039 381.249L86.4809 379.98C86.6879 379.53 86.9039 379.035 87.1379 378.513C87.3719 377.991 87.6239 377.424 87.8849 376.821C88.1459 376.218 88.4969 375.624 88.7849 374.976L89.8289 372.942L91.0709 370.809C91.8899 369.315 92.9519 367.821 93.9689 366.201C96.3597 362.791 98.9408 359.519 101.7 356.4C104.49 353.305 107.437 350.355 110.529 347.562C112.005 346.32 113.346 345.087 114.705 344.043L116.64 342.504L118.44 341.154C119.592 340.254 120.69 339.534 121.644 338.895C122.598 338.256 123.444 337.689 124.119 337.275L125.703 336.267C125.895 336.16 126.076 336.033 126.243 335.889C126.038 335.968 125.842 336.067 125.658 336.186L124.029 337.086C123.309 337.482 122.463 337.986 121.5 338.643C120.537 339.3 119.412 339.984 118.242 340.848L116.379 342.18L114.417 343.71C113.049 344.736 111.717 345.969 110.205 347.202C107.08 349.988 104.109 352.941 101.304 356.049C98.5419 359.191 95.9722 362.497 93.6089 365.949C92.5829 367.587 91.5299 369.09 90.7199 370.611L89.4959 372.771L88.4789 374.823C88.1639 375.48 87.8309 376.092 87.5789 376.695C87.3269 377.298 87.0839 377.874 86.8589 378.405C86.6339 378.936 86.4269 379.44 86.2379 379.899C86.0489 380.358 85.9229 380.799 85.7879 381.186C85.5449 381.915 85.3559 382.509 85.2029 382.986C85.1373 383.185 85.0921 383.39 85.0679 383.598Z" fill="#263238"/>
<path d="M41.949 331.425C41.949 331.497 43.191 331.497 45.18 331.614C47.7675 331.75 50.3438 332.05 52.893 332.514C55.4372 333.007 57.9473 333.663 60.408 334.476C61.4133 334.864 62.4377 335.2 63.477 335.484C63.2439 335.309 62.9861 335.169 62.712 335.07C62.208 334.827 61.461 334.512 60.516 334.17C58.0676 333.27 55.5476 332.577 52.983 332.1C50.4126 331.611 47.8051 331.343 45.189 331.299C44.19 331.299 43.389 331.299 42.813 331.344C42.5225 331.327 42.2311 331.354 41.949 331.425Z" fill="#263238"/>
<path d="M34.2449 369.063C35.3634 366.768 36.7763 364.629 38.4479 362.7C41.3099 359.577 44.5499 358.2 44.4599 358.038C43.729 358.234 43.0313 358.537 42.3899 358.938C40.7973 359.859 39.3505 361.012 38.0969 362.358C36.8473 363.694 35.8066 365.211 35.0099 366.858C34.6317 367.544 34.373 368.29 34.2449 369.063Z" fill="#263238"/>
<path d="M60.5249 294.183C60.4259 294.282 62.325 296.145 64.359 298.683C66.393 301.221 67.869 303.417 67.959 303.345C67.1175 301.541 66.0202 299.868 64.7009 298.377C63.5182 296.785 62.1116 295.373 60.5249 294.183Z" fill="#263238"/>
<path d="M66.699 283.5C65.9148 286.15 65.4495 288.885 65.313 291.645C65.762 290.339 66.0639 288.986 66.213 287.613C66.5318 286.265 66.6949 284.885 66.699 283.5Z" fill="#263238"/>
<path d="M85.8059 316.971C86.6594 319.136 87.6577 321.24 88.7939 323.271C89.7941 325.369 90.9368 327.395 92.2139 329.337C91.3629 327.171 90.3646 325.066 89.2259 323.037C88.2257 320.939 87.083 318.913 85.8059 316.971Z" fill="#263238"/>
<path d="M97.2 305.613C96.218 307.051 95.3685 308.575 94.6619 310.167C93.8159 311.685 93.1138 313.279 92.5649 314.928C93.5471 313.495 94.3938 311.973 95.094 310.383C95.9433 308.862 96.6484 307.265 97.2 305.613Z" fill="#263238"/>
<path d="M113.895 344.448C113.895 344.583 115.956 344.196 118.485 344.016C121.014 343.836 123.084 343.935 123.093 343.8C121.576 343.436 120.006 343.348 118.458 343.539C116.896 343.576 115.352 343.883 113.895 344.448Z" fill="#263238"/>
<path d="M102.483 378.783L96.7949 408.69C96.6125 409.65 96.1009 410.515 95.3484 411.138C94.5959 411.761 93.6496 412.101 92.6728 412.101H75.8788C74.886 412.102 73.9251 411.75 73.1671 411.109C72.409 410.468 71.9029 409.579 71.7388 408.6L66.7979 378.783H102.483Z" fill="#263238"/>
<path d="M100.638 388.503H68.4989L66.7979 378.783H102.483L100.638 388.503Z" fill="#455A64"/>
<path d="M100.638 388.503L99.9628 392.049H68.9938L68.4988 388.503H100.638Z" fill="#FAFAFA"/>
<path d="M348.453 385.038L349.164 402.462C349.164 402.462 331.686 409.041 331.506 412.272L365.346 412.11V384.912L348.453 385.038Z" fill="#263238"/>
<path d="M359.622 400.95C359.948 401.048 360.226 401.263 360.404 401.554C360.582 401.844 360.646 402.19 360.585 402.525C360.496 402.853 360.285 403.135 359.996 403.314C359.707 403.492 359.361 403.555 359.028 403.488C358.683 403.385 358.389 403.158 358.203 402.85C358.017 402.542 357.951 402.176 358.02 401.823C358.142 401.486 358.392 401.211 358.715 401.056C359.038 400.901 359.409 400.879 359.748 400.995" fill="#E0E0E0"/>
<path d="M365.346 412.11L365.238 409.41L332.838 410.589C332.838 410.589 331.335 411.255 331.506 412.317L365.346 412.11Z" fill="#455A64"/>
<path d="M348.615 402.3C348.615 402.462 349.443 402.534 350.262 403.056C351.081 403.578 351.513 404.28 351.666 404.217C351.819 404.154 351.567 403.191 350.568 402.57C349.569 401.949 348.579 402.147 348.615 402.3Z" fill="white"/>
<path d="M345.069 403.776C345.069 403.938 345.753 404.217 346.32 404.91C346.887 405.603 347.049 406.35 347.22 406.341C347.391 406.332 347.481 405.396 346.77 404.541C346.059 403.686 345.078 403.623 345.069 403.776Z" fill="white"/>
<path d="M343.08 408.033C343.224 408.033 343.449 407.241 343.026 406.341C342.603 405.441 341.82 405.081 341.748 405.225C341.676 405.369 342.162 405.837 342.504 406.584C342.846 407.331 342.9 408.024 343.08 408.033Z" fill="white"/>
<path d="M348.894 398.304C348.966 398.457 349.722 398.223 350.694 398.304C351.666 398.385 352.35 398.655 352.44 398.511C352.53 398.367 351.819 397.782 350.721 397.728C349.623 397.674 348.813 398.178 348.894 398.304Z" fill="white"/>
<path d="M400.5 389.097L404.892 409.734L403.659 427.059C403.638 427.354 403.678 427.651 403.777 427.93C403.875 428.21 404.03 428.466 404.232 428.683C404.434 428.9 404.678 429.073 404.949 429.191C405.221 429.31 405.514 429.371 405.81 429.372C406.153 429.372 406.491 429.29 406.796 429.134C407.101 428.977 407.365 428.751 407.565 428.472C410.157 424.872 419.625 411.435 419.265 409.941C418.788 408.213 416.079 387.864 416.079 387.864L400.5 389.097Z" fill="#263238"/>
<path d="M405.801 429.372L418.941 408.537L419.112 409.437C419.258 410.195 419.127 410.981 418.743 411.651C417.717 413.451 414.783 418.347 407.619 428.481C407.415 428.766 407.144 428.997 406.83 429.154C406.517 429.31 406.17 429.388 405.819 429.381L405.801 429.372Z" fill="#455A64"/>
<g opacity="0.6">
<path opacity="0.6" d="M413.424 402.651C413.21 402.891 413.092 403.202 413.092 403.524C413.092 403.846 413.21 404.156 413.424 404.397C413.651 404.627 413.958 404.761 414.282 404.771C414.605 404.781 414.92 404.667 415.161 404.451C415.39 404.196 415.517 403.866 415.517 403.524C415.517 403.182 415.39 402.851 415.161 402.597C414.898 402.387 414.565 402.287 414.231 402.315C413.896 402.343 413.585 402.499 413.361 402.75" fill="white"/>
</g>
<path d="M408.825 419.4C408.202 418.849 407.482 418.418 406.701 418.131C405.883 417.98 405.044 417.98 404.226 418.131C404.226 418.086 404.433 417.879 404.91 417.717C405.536 417.533 406.201 417.533 406.827 417.717C407.458 417.89 408.026 418.24 408.465 418.725C408.78 419.094 408.87 419.4 408.825 419.4Z" fill="white"/>
<path d="M407.871 422.469C407.212 422.252 406.542 422.072 405.864 421.929C405.172 421.932 404.481 421.972 403.794 422.046C404.405 421.598 405.16 421.393 405.914 421.471C406.668 421.549 407.365 421.905 407.871 422.469Z" fill="white"/>
<path d="M410.904 415.341C408.983 414.343 406.811 413.93 404.658 414.153C405.704 413.737 406.848 413.627 407.954 413.838C409.06 414.048 410.084 414.57 410.904 415.341Z" fill="white"/>
<path d="M410.094 408.951C410.094 409.086 408.825 408.825 407.322 409.059C405.819 409.293 404.712 409.86 404.622 409.743C405.376 409.133 406.281 408.738 407.24 408.599C408.2 408.459 409.18 408.581 410.076 408.951H410.094Z" fill="white"/>
<path d="M408.96 402.867C408.002 402.732 407.029 402.732 406.071 402.867C405.148 403.148 404.266 403.554 403.452 404.073C403.452 404.073 403.587 403.731 404.01 403.371C404.578 402.9 405.251 402.573 405.972 402.417C406.688 402.248 407.434 402.248 408.15 402.417C408.69 402.615 408.978 402.813 408.96 402.867Z" fill="white"/>
<path d="M405.9 401.724C405.783 401.483 405.722 401.218 405.72 400.95C405.655 400.216 405.734 399.476 405.954 398.772C406.075 398.248 406.362 397.778 406.773 397.431C406.921 397.332 407.095 397.28 407.272 397.28C407.45 397.28 407.624 397.332 407.772 397.431C408.049 397.655 408.23 397.977 408.276 398.331C408.359 399.036 408.195 399.747 407.81 400.343C407.426 400.94 406.846 401.383 406.17 401.598C405.498 401.799 404.781 401.796 404.11 401.587C403.44 401.379 402.848 400.975 402.408 400.428C402.297 400.289 402.217 400.128 402.173 399.956C402.13 399.784 402.124 399.604 402.156 399.429C402.214 399.262 402.32 399.115 402.461 399.008C402.602 398.901 402.771 398.838 402.948 398.826C403.48 398.839 403.999 398.994 404.451 399.276C405.098 399.62 405.679 400.074 406.17 400.617C406.366 400.803 406.522 401.026 406.629 401.274C405.94 400.597 405.158 400.021 404.307 399.564C403.9 399.343 403.447 399.219 402.984 399.204C402.886 399.206 402.791 399.24 402.713 399.299C402.635 399.359 402.579 399.443 402.552 399.537C402.54 399.652 402.552 399.768 402.588 399.879C402.623 399.989 402.682 400.09 402.759 400.176C403.153 400.638 403.671 400.976 404.252 401.15C404.833 401.324 405.452 401.326 406.035 401.157C406.596 400.961 407.077 400.584 407.403 400.086C407.728 399.588 407.88 398.996 407.835 398.403C407.803 398.163 407.685 397.942 407.502 397.782C407.423 397.723 407.326 397.691 407.227 397.691C407.128 397.691 407.032 397.723 406.953 397.782C406.606 398.075 406.357 398.468 406.242 398.907C405.967 399.82 405.852 400.772 405.9 401.724Z" fill="white"/>
<path d="M335.997 243.333C335.997 243.333 335.853 252.513 336.465 264.366C336.699 268.956 346.365 396.54 346.365 396.54L367.227 397.062L364.356 277.821L367.956 278.721C367.956 278.721 378.945 318.483 381.339 327.582C384.183 338.382 399.492 399.78 399.492 399.78L418.563 400.482L406.017 328.563L395.19 260.1L393.021 240.192L335.997 243.333Z" fill="#455A64"/>
<path d="M367.956 265.761C367.676 265.952 367.373 266.109 367.056 266.229C366.23 266.622 365.355 266.903 364.455 267.066C363.818 267.181 363.166 267.181 362.529 267.066C361.782 266.925 361.091 266.572 360.54 266.049C359.973 265.442 359.573 264.697 359.379 263.889C359.154 263.07 359.037 262.224 358.884 261.369C358.299 257.913 357.93 254.763 357.723 252.477C357.624 251.334 357.561 250.407 357.525 249.777C357.49 249.445 357.49 249.11 357.525 248.778C357.622 249.097 357.68 249.426 357.696 249.759C357.786 250.488 357.903 251.388 358.038 252.459C358.317 254.736 358.74 257.859 359.316 261.306C359.613 263.016 359.802 264.744 360.828 265.806C361.314 266.235 361.889 266.55 362.511 266.729C363.134 266.908 363.789 266.947 364.428 266.841C365.312 266.706 366.178 266.474 367.011 266.148C367.309 265.982 367.627 265.852 367.956 265.761Z" fill="#263238"/>
<path d="M362.079 249.444C362.079 249.444 362.214 249.345 362.511 249.327C362.929 249.333 363.333 249.475 363.663 249.732C363.919 249.923 364.129 250.169 364.276 250.453C364.422 250.737 364.502 251.051 364.509 251.37C364.475 251.772 364.324 252.155 364.076 252.473C363.828 252.791 363.493 253.03 363.111 253.161C362.729 253.291 362.318 253.308 361.927 253.209C361.536 253.11 361.182 252.9 360.909 252.603C360.718 252.349 360.588 252.055 360.527 251.743C360.466 251.432 360.477 251.11 360.558 250.803C360.651 250.391 360.887 250.024 361.224 249.768C361.458 249.588 361.62 249.57 361.629 249.588C361.243 249.921 360.975 250.369 360.864 250.866C360.813 251.123 360.818 251.389 360.881 251.644C360.943 251.899 361.06 252.137 361.224 252.342C361.441 252.569 361.72 252.725 362.027 252.791C362.333 252.856 362.652 252.829 362.943 252.711C363.244 252.625 363.511 252.45 363.71 252.209C363.909 251.968 364.031 251.672 364.059 251.361C364.062 251.098 364.007 250.838 363.898 250.598C363.789 250.359 363.629 250.146 363.429 249.975C363.045 249.663 362.573 249.477 362.079 249.444Z" fill="#263238"/>
<path d="M394.929 258.867C394.699 258.94 394.459 258.974 394.218 258.966C393.565 259.009 392.909 259.009 392.256 258.966C387.917 258.586 383.838 256.731 380.7 253.71C380.226 253.257 379.787 252.77 379.386 252.252C379.224 252.074 379.087 251.874 378.981 251.658C379.044 251.613 379.692 252.396 380.916 253.458C382.508 254.861 384.297 256.022 386.226 256.905C388.164 257.772 390.221 258.345 392.328 258.606C393.912 258.822 394.929 258.786 394.929 258.867Z" fill="#263238"/>
<path d="M344.412 249.39C344.207 250.112 343.93 250.812 343.584 251.478C342.848 253.036 341.942 254.509 340.884 255.87C339.916 257.135 338.791 258.272 337.536 259.254C337.07 259.663 336.541 259.994 335.97 260.235C336.429 259.793 336.912 259.379 337.419 258.993C338.612 257.954 339.703 256.802 340.677 255.555C341.695 254.218 342.598 252.797 343.377 251.307C344.025 250.128 344.367 249.354 344.412 249.39Z" fill="#263238"/>
<path d="M356.4 117.531C356.717 113.472 358.55 109.681 361.535 106.913C364.52 104.144 368.439 102.601 372.51 102.591H373.347C382.392 103.095 387.018 111.06 386.262 120.087L384.3 148.158L368.181 164.916L364.059 154.899V148.23C364.059 148.23 355.365 146.898 355.23 138.213C355.212 134.01 355.788 125.352 356.4 117.531Z" fill="#FFBE9D"/>
<path d="M364.032 148.221C368.066 148.223 372.017 147.071 375.417 144.9C375.417 144.9 372.717 151.2 364.077 150.399L364.032 148.221Z" fill="#EB996E"/>
<path d="M358.722 124.776C358.722 125.098 358.846 125.407 359.07 125.639C359.293 125.87 359.597 126.006 359.919 126.018C360.076 126.03 360.235 126.011 360.385 125.961C360.535 125.911 360.673 125.832 360.792 125.728C360.911 125.624 361.008 125.498 361.078 125.356C361.147 125.214 361.188 125.06 361.197 124.902C361.202 124.578 361.079 124.265 360.855 124.031C360.631 123.797 360.324 123.66 360 123.651C359.842 123.639 359.683 123.658 359.532 123.709C359.382 123.759 359.243 123.839 359.123 123.944C359.004 124.049 358.907 124.176 358.838 124.319C358.769 124.462 358.73 124.617 358.722 124.776Z" fill="#263238"/>
<path d="M358.272 121.779C358.434 121.941 359.37 121.239 360.702 121.239C362.034 121.239 363.024 121.905 363.168 121.743C363.312 121.581 363.078 121.374 362.655 121.068C362.078 120.665 361.388 120.454 360.684 120.465C359.988 120.464 359.311 120.684 358.749 121.095C358.335 121.41 358.2 121.707 358.272 121.779Z" fill="#263238"/>
<path d="M370.8 125.1C370.8 125.424 370.925 125.736 371.15 125.969C371.375 126.202 371.682 126.339 372.006 126.351C372.164 126.362 372.323 126.341 372.473 126.291C372.623 126.24 372.761 126.16 372.88 126.055C372.999 125.951 373.096 125.823 373.165 125.681C373.234 125.539 373.275 125.384 373.284 125.226C373.284 124.902 373.159 124.59 372.934 124.357C372.709 124.124 372.402 123.987 372.078 123.975C371.92 123.963 371.761 123.982 371.61 124.033C371.46 124.083 371.321 124.163 371.202 124.268C371.082 124.373 370.986 124.5 370.917 124.643C370.848 124.786 370.808 124.941 370.8 125.1Z" fill="#263238"/>
<path d="M371.403 121.986C371.565 122.148 372.501 121.455 373.833 121.455C375.165 121.455 376.155 122.112 376.299 121.95C376.443 121.788 376.209 121.59 375.786 121.275C375.206 120.879 374.517 120.672 373.815 120.681C373.119 120.677 372.44 120.898 371.88 121.311C371.475 121.626 371.331 121.914 371.403 121.986Z" fill="#263238"/>
<path d="M366.588 131.913C365.886 131.688 365.156 131.558 364.419 131.526C364.077 131.526 363.753 131.418 363.69 131.193C363.663 130.839 363.742 130.485 363.915 130.176L364.923 127.575C366.309 123.876 367.317 120.834 367.164 120.78C367.011 120.726 365.769 123.678 364.374 127.377C364.041 128.277 363.726 129.177 363.42 129.996C363.206 130.409 363.145 130.884 363.249 131.337C363.298 131.457 363.374 131.564 363.471 131.649C363.567 131.735 363.682 131.798 363.807 131.832C363.995 131.882 364.189 131.909 364.383 131.913C365.115 132.004 365.856 132.004 366.588 131.913Z" fill="#263238"/>
<path d="M370.521 132.822C370.305 132.822 370.305 134.262 369.063 135.288C367.821 136.314 366.282 136.188 366.273 136.377C366.264 136.566 366.615 136.656 367.272 136.665C368.122 136.682 368.95 136.391 369.603 135.846C370.234 135.329 370.638 134.586 370.728 133.776C370.8 133.2 370.62 132.813 370.521 132.822Z" fill="#263238"/>
<path d="M371.052 116.757C371.178 117.117 372.51 116.937 374.085 117.126C375.66 117.315 376.92 117.738 377.127 117.405C377.217 117.252 376.992 116.91 376.488 116.559C375.804 116.129 375.031 115.862 374.228 115.776C373.425 115.69 372.612 115.789 371.853 116.064C371.277 116.298 370.989 116.586 371.052 116.757Z" fill="#263238"/>
<path d="M358.758 117.9C358.992 118.206 359.91 117.9 361.017 117.9C362.124 117.9 363.06 118.098 363.276 117.783C363.375 117.63 363.222 117.324 362.808 117.036C362.271 116.695 361.643 116.526 361.008 116.55C360.359 116.56 359.729 116.774 359.208 117.162C358.776 117.45 358.65 117.756 358.758 117.9Z" fill="#263238"/>
<path d="M353.178 109.926C353.244 109.527 353.453 109.166 353.766 108.911C354.079 108.656 354.475 108.524 354.879 108.54C354.457 108.433 354.057 108.25 353.7 108C353.52 107.861 353.383 107.674 353.304 107.461C353.224 107.248 353.206 107.017 353.25 106.794C353.457 106.119 354.312 105.957 354.987 105.741C355.875 105.463 356.653 104.912 357.21 104.166C358.011 103.104 358.29 101.736 358.965 100.566C359.408 99.8229 360.013 99.1889 360.734 98.7107C361.455 98.2326 362.274 97.9224 363.131 97.8032C363.988 97.684 364.861 97.7587 365.685 98.022C366.509 98.2852 367.264 98.7301 367.893 99.324C368.54 98.6192 369.347 98.079 370.245 97.7485C371.143 97.418 372.107 97.3066 373.057 97.4237C374.006 97.5408 374.914 97.8829 375.705 98.4216C376.496 98.9603 377.147 99.6801 377.604 100.521C378.749 100.004 380.013 99.8042 381.262 99.9433C382.51 100.082 383.699 100.555 384.702 101.312C385.705 102.068 386.487 103.081 386.964 104.244C387.441 105.406 387.596 106.676 387.414 107.919L382.104 111.384C382.047 110.979 381.905 110.59 381.688 110.243C381.471 109.895 381.184 109.598 380.844 109.369C380.505 109.14 380.121 108.984 379.718 108.913C379.315 108.842 378.901 108.855 378.504 108.954C376.884 109.476 375.894 111.393 374.202 111.573C372.879 111.708 371.727 110.718 370.44 110.412C368.831 110.184 367.196 110.587 365.877 111.537C364.577 112.481 363.157 113.25 361.656 113.823C359.804 114.243 357.867 114.067 356.121 113.319C355.352 113.072 354.645 112.66 354.051 112.113C353.738 111.847 353.496 111.509 353.343 111.128C353.191 110.747 353.134 110.334 353.178 109.926Z" fill="#263238"/>
<path d="M381.051 108.9L356.265 109.467C357.1 107.786 358.336 106.336 359.865 105.246C363.085 102.753 367.009 101.339 371.079 101.205C375.12 101.133 383.355 106.047 386.289 108.828C388.629 111.06 388.62 112.995 388.62 112.995C388.989 116.208 387.198 119.862 386.478 123.012C386.118 124.641 385.407 129.564 385.407 129.564C384.039 129.564 383.535 128.475 383.733 127.125L383.985 121.824C382.617 120.737 381.643 119.231 381.212 117.537C380.781 115.843 380.918 114.055 381.6 112.446C381.933 111.96 382.689 109.8 381.051 108.9Z" fill="#263238"/>
<path d="M384.408 121.419C385.551 116.991 386.568 112.257 385.11 107.919L385.839 107.865L386.154 108.081C386.846 107.824 387.602 107.794 388.312 107.997C389.022 108.199 389.649 108.623 390.101 109.207C390.553 109.791 390.807 110.504 390.825 111.242C390.844 111.98 390.626 112.704 390.204 113.31C390.94 113.281 391.661 113.524 392.231 113.992C392.8 114.46 393.177 115.12 393.291 115.848C393.321 116.867 393.072 117.876 392.571 118.764C392.072 119.65 391.78 120.638 391.716 121.653C391.698 122.161 391.86 122.66 392.173 123.061C392.485 123.463 392.929 123.742 393.426 123.849C393.199 124.37 392.799 124.797 392.295 125.059C391.79 125.321 391.211 125.402 390.654 125.289C391.045 126.143 391.669 126.87 392.454 127.386C390.87 128.529 388.647 128.223 386.865 127.386C385.768 126.98 384.859 126.186 384.309 125.154C383.943 123.93 383.978 122.622 384.408 121.419Z" fill="#263238"/>
<path d="M384.957 126.522C385.11 126.459 390.933 124.722 390.753 130.68C390.573 136.638 384.651 135.225 384.642 135.054C384.633 134.883 384.957 126.522 384.957 126.522Z" fill="#FFBE9D"/>
<path d="M386.001 132.858C386.001 132.858 386.109 132.93 386.28 133.02C386.529 133.119 386.806 133.119 387.054 133.02C387.443 132.785 387.764 132.452 387.983 132.054C388.203 131.655 388.314 131.207 388.305 130.752C388.332 130.245 388.246 129.737 388.053 129.267C388.005 129.08 387.911 128.908 387.781 128.765C387.651 128.622 387.488 128.514 387.306 128.448C387.188 128.413 387.062 128.42 386.949 128.467C386.836 128.515 386.742 128.6 386.685 128.709C386.595 128.88 386.631 128.997 386.604 129.006C386.577 129.015 386.478 128.898 386.532 128.655C386.568 128.51 386.654 128.382 386.775 128.295C386.857 128.234 386.95 128.191 387.049 128.167C387.148 128.144 387.251 128.142 387.351 128.16C387.594 128.215 387.818 128.332 388.003 128.499C388.187 128.666 388.325 128.878 388.404 129.114C388.646 129.634 388.754 130.206 388.719 130.779C388.731 131.308 388.587 131.829 388.306 132.277C388.024 132.725 387.617 133.08 387.135 133.299C386.981 133.335 386.821 133.337 386.666 133.306C386.511 133.275 386.364 133.211 386.235 133.119C386.01 133.002 385.983 132.867 386.001 132.858Z" fill="#EB996E"/>
<path d="M390.978 121.419C390.978 121.419 391.14 121.194 391.068 120.726C391 120.404 390.862 120.102 390.663 119.84C390.463 119.579 390.208 119.365 389.916 119.214C389.065 118.84 388.146 118.644 387.216 118.638C386.688 118.654 386.163 118.544 385.686 118.317C385.209 118.09 384.792 117.753 384.471 117.333C383.95 116.39 383.754 115.302 383.913 114.237C384.03 113.238 384.264 112.32 384.372 111.537C384.587 110.699 384.55 109.816 384.264 108.999C384.286 109.832 384.216 110.665 384.057 111.483C383.904 112.248 383.634 113.13 383.49 114.183C383.295 115.352 383.504 116.552 384.084 117.585C384.43 118.116 384.938 118.52 385.533 118.737C386.064 118.921 386.619 119.027 387.18 119.052C388.076 119.034 388.967 119.184 389.808 119.493C390.071 119.619 390.305 119.796 390.499 120.014C390.692 120.232 390.839 120.486 390.933 120.762C390.968 120.979 390.983 121.199 390.978 121.419Z" fill="#455A64"/>
<path d="M392.337 118.8C392.337 118.8 392.463 118.629 392.508 118.26C392.538 117.812 392.456 117.363 392.269 116.954C392.082 116.546 391.796 116.19 391.437 115.92C391.093 115.673 390.7 115.501 390.285 115.416C389.883 115.345 389.498 115.198 389.151 114.984C388.994 114.854 388.869 114.69 388.785 114.504C388.701 114.319 388.66 114.117 388.665 113.913C388.665 113.463 388.665 113.013 388.665 112.509C388.616 111.285 388.237 110.097 387.567 109.071C387.427 108.837 387.232 108.641 386.997 108.501C386.763 108.362 386.498 108.282 386.226 108.27C385.839 108.27 385.677 108.468 385.695 108.477C385.713 108.486 385.893 108.405 386.217 108.477C386.447 108.518 386.664 108.611 386.852 108.75C387.039 108.889 387.191 109.07 387.297 109.278C387.655 109.903 387.913 110.58 388.062 111.285C388.155 111.702 388.207 112.127 388.215 112.554C388.215 112.986 388.215 113.454 388.215 113.967C388.213 114.237 388.271 114.505 388.387 114.75C388.502 114.994 388.671 115.21 388.881 115.38C389.284 115.622 389.73 115.784 390.195 115.857C390.539 115.907 390.868 116.028 391.161 116.215C391.454 116.401 391.705 116.647 391.896 116.937C392.23 117.498 392.384 118.149 392.337 118.8Z" fill="#455A64"/>
<path d="M357.174 104.139C357.174 104.139 357.624 104.445 358.398 104.058C358.826 103.811 359.197 103.477 359.487 103.077C359.85 102.573 360.305 102.143 360.828 101.808C361.515 101.401 362.305 101.201 363.103 101.232C363.901 101.262 364.674 101.521 365.328 101.979C366.075 102.492 366.741 103.221 367.614 103.779C368.064 104.099 368.576 104.32 369.117 104.427C369.69 104.505 370.274 104.43 370.809 104.211C371.862 103.797 372.69 103.122 373.599 102.762C374.477 102.392 375.418 102.194 376.371 102.177C378.002 102.134 379.6 102.635 380.916 103.599C381.803 104.248 382.547 105.072 383.103 106.02C383.499 106.704 383.643 107.118 383.679 107.1C383.715 107.082 383.679 106.992 383.607 106.785C383.516 106.494 383.402 106.211 383.265 105.939C382.748 104.922 382.01 104.033 381.105 103.338C379.752 102.289 378.083 101.731 376.371 101.754C375.362 101.757 374.362 101.956 373.428 102.339C372.447 102.735 371.628 103.41 370.638 103.779C370.182 103.974 369.68 104.039 369.189 103.968C368.712 103.876 368.261 103.683 367.866 103.401C367.056 102.852 366.372 102.132 365.562 101.601C364.799 101.065 363.884 100.791 362.952 100.818C362.143 100.842 361.355 101.078 360.666 101.502C360.121 101.867 359.656 102.338 359.298 102.888C359.04 103.28 358.707 103.617 358.317 103.878C357.978 104.095 357.574 104.187 357.174 104.139Z" fill="#455A64"/>
<path d="M322.344 182.907L291.591 158.607L287.208 154.008C287.208 154.008 276.732 144.225 275.85 143.154C274.824 141.921 273.978 142.119 273.555 142.524C272.88 143.163 273.105 144.459 273.951 145.539C274.248 145.917 279.099 151.65 279.099 151.65C278.31 151.388 277.504 151.181 276.687 151.029C274.932 150.66 272.412 151.713 270.387 153.486C268.362 155.259 267.984 155.943 268.641 156.753C268.771 156.899 268.933 157.015 269.113 157.091C269.294 157.167 269.489 157.202 269.685 157.194C270.331 157.198 270.956 156.964 271.44 156.537C274.68 153.729 277.038 154.737 277.038 154.737L277.614 155.34C277.614 155.34 274.419 155.583 273.321 157.518C273.16 157.795 273.056 158.101 273.015 158.418C272.568 158.796 272.227 159.284 272.026 159.833C271.826 160.383 271.772 160.976 271.87 161.553C271.968 162.13 272.215 162.671 272.586 163.124C272.957 163.576 273.44 163.924 273.987 164.133C274.241 164.26 274.527 164.308 274.808 164.269C275.089 164.231 275.352 164.108 275.562 163.917C275.723 163.661 275.821 163.372 275.85 163.071C275.872 162.915 275.908 162.761 275.958 162.612L277.803 164.07C277.803 164.07 282.114 167.13 283.842 168.678L309.6 196.677C310.447 197.597 311.469 198.339 312.606 198.86C313.743 199.38 314.972 199.67 316.222 199.711C317.471 199.752 318.717 199.544 319.885 199.099C321.054 198.653 322.122 197.98 323.028 197.118C324.003 196.185 324.766 195.055 325.265 193.802C325.765 192.549 325.991 191.204 325.926 189.857C325.861 188.509 325.507 187.192 324.89 185.993C324.272 184.794 323.404 183.742 322.344 182.907Z" fill="#FFBE9D"/>
<path d="M290.313 159.003C290.036 159.304 289.673 159.512 289.273 159.597C288.873 159.683 288.457 159.642 288.081 159.48C287.307 159.219 286.65 158.697 285.894 158.382C283.653 157.428 280.908 158.382 278.694 157.302C278.379 157.158 278.055 156.879 278.127 156.546C278.199 156.213 278.577 156.123 278.883 156.069L286.83 154.548" fill="#FFBE9D"/>
<path d="M286.848 154.548C286.546 154.53 286.243 154.554 285.948 154.62C285.39 154.701 284.589 154.827 283.599 154.998L280.107 155.619L279.108 155.799C278.686 155.812 278.285 155.99 277.992 156.294C277.914 156.407 277.873 156.54 277.873 156.677C277.873 156.813 277.914 156.947 277.992 157.059C278.124 157.238 278.297 157.383 278.496 157.482C278.856 157.653 279.233 157.785 279.621 157.878C281.062 158.073 282.514 158.169 283.968 158.166C284.584 158.202 285.191 158.333 285.768 158.553C286.266 158.774 286.753 159.02 287.226 159.291C287.577 159.513 287.973 159.655 288.385 159.708C288.797 159.76 289.215 159.723 289.611 159.597C290.178 159.354 290.295 158.994 290.277 159.003C290.061 159.182 289.818 159.325 289.557 159.426C289.184 159.511 288.798 159.517 288.423 159.444C288.048 159.372 287.692 159.221 287.379 159.003C286.908 158.71 286.421 158.442 285.921 158.202C285.32 157.948 284.681 157.793 284.031 157.743C282.598 157.724 281.167 157.619 279.747 157.428C279.397 157.346 279.056 157.229 278.73 157.077C278.433 156.924 278.244 156.672 278.361 156.537C278.478 156.402 278.829 156.294 279.171 156.231L280.17 156.033L283.635 155.322C284.625 155.106 285.435 154.935 285.966 154.8C286.269 154.752 286.565 154.667 286.848 154.548Z" fill="#EB996E"/>
<path d="M277.731 155.313C277.36 154.955 276.915 154.685 276.426 154.521C275.891 154.385 275.327 154.423 274.815 154.629C274.182 154.895 273.593 155.257 273.069 155.7C272.53 156.164 271.945 156.571 271.323 156.915C270.797 157.202 270.203 157.342 269.604 157.32C269.399 157.31 269.199 157.253 269.019 157.153C268.839 157.053 268.685 156.913 268.569 156.744C268.478 156.624 268.425 156.48 268.416 156.33C268.416 156.33 268.497 156.465 268.659 156.672C268.778 156.811 268.926 156.922 269.092 156.998C269.259 157.074 269.439 157.113 269.622 157.113C270.176 157.102 270.718 156.951 271.197 156.672C271.796 156.322 272.363 155.918 272.889 155.466C273.427 155.007 274.035 154.637 274.689 154.368C275.266 154.147 275.902 154.132 276.489 154.323C276.868 154.448 277.211 154.665 277.488 154.953C277.686 155.169 277.749 155.304 277.731 155.313Z" fill="#EB996E"/>
<path d="M273.6 145.116C273.957 145.464 274.282 145.844 274.572 146.25L276.84 149.04L279.153 151.794C279.483 152.16 279.784 152.551 280.053 152.964C279.654 152.662 279.289 152.318 278.964 151.938C278.325 151.263 277.479 150.318 276.579 149.238C275.679 148.158 274.905 147.141 274.365 146.385C274.062 145.993 273.805 145.567 273.6 145.116Z" fill="#EB996E"/>
<path d="M277.515 157.707C277.374 157.771 277.226 157.819 277.074 157.851C276.883 157.898 276.705 157.985 276.549 158.106C276.394 158.227 276.267 158.379 276.174 158.553C276.127 158.673 276.112 158.803 276.129 158.93C276.146 159.058 276.196 159.179 276.273 159.282C276.472 159.537 276.698 159.77 276.948 159.975C277.272 160.231 277.493 160.595 277.569 161.001C277.583 161.224 277.544 161.448 277.457 161.654C277.369 161.86 277.235 162.043 277.065 162.189C276.897 162.33 276.701 162.434 276.49 162.496C276.28 162.558 276.059 162.576 275.841 162.549C275.438 162.513 275.055 162.356 274.743 162.099C274.27 161.662 273.864 161.159 273.537 160.605C273.306 160.235 273.136 159.831 273.033 159.408C272.979 159.102 273.033 158.931 273.033 158.931C273.033 158.931 273.033 159.102 273.141 159.381C273.275 159.776 273.466 160.149 273.708 160.488C274.042 161.008 274.445 161.48 274.905 161.892C275.177 162.118 275.516 162.247 275.869 162.26C276.223 162.273 276.57 162.169 276.858 161.964C276.99 161.855 277.094 161.717 277.165 161.561C277.235 161.405 277.268 161.235 277.263 161.064C277.202 160.728 277.019 160.427 276.75 160.218C276.487 159.991 276.254 159.731 276.057 159.444C275.961 159.308 275.904 159.148 275.889 158.982C275.875 158.816 275.905 158.65 275.976 158.499C276.086 158.302 276.241 158.134 276.429 158.009C276.617 157.883 276.832 157.805 277.056 157.779C277.203 157.726 277.359 157.701 277.515 157.707Z" fill="#EB996E"/>
<path d="M275.76 162.297C275.76 162.297 275.904 162.378 276.003 162.648C276.063 162.841 276.078 163.045 276.047 163.245C276.016 163.445 275.939 163.634 275.823 163.8C275.638 164.039 275.393 164.225 275.114 164.34C274.834 164.455 274.53 164.495 274.23 164.457C273.519 164.35 272.876 163.977 272.43 163.413C271.97 162.86 271.693 162.177 271.638 161.46C271.607 160.975 271.684 160.49 271.863 160.039C272.042 159.588 272.318 159.181 272.673 158.85C272.88 158.67 273.015 158.598 273.024 158.616C272.68 158.986 272.392 159.405 272.169 159.858C271.932 160.408 271.852 161.013 271.938 161.605C272.023 162.198 272.272 162.755 272.655 163.215C273.061 163.731 273.645 164.077 274.293 164.187C274.549 164.224 274.809 164.196 275.051 164.107C275.293 164.017 275.509 163.868 275.679 163.674C275.787 163.534 275.864 163.372 275.904 163.2C275.944 163.027 275.947 162.849 275.913 162.675C275.832 162.432 275.742 162.306 275.76 162.297Z" fill="#EB996E"/>
<path d="M282.951 162.846C282.951 162.846 283.104 162.612 283.509 162.387C284.064 162.105 284.696 162.01 285.309 162.117L285.156 162.333C284.969 162.042 284.798 161.742 284.643 161.433C284.057 160.398 283.776 159.219 283.833 158.031C284.076 159.155 284.438 160.25 284.913 161.298C285.066 161.604 285.237 161.892 285.399 162.153L285.579 162.441L285.255 162.369C284.691 162.257 284.107 162.31 283.572 162.522C283.185 162.711 282.978 162.9 282.951 162.846Z" fill="#EB996E"/>
<path d="M274.653 153.108C274.734 153.108 274.86 153.684 274.527 154.323C274.194 154.962 273.627 155.223 273.627 155.151C273.627 155.079 273.987 154.755 274.266 154.188C274.545 153.621 274.572 153.108 274.653 153.108Z" fill="#EB996E"/>
<path d="M320.949 199.071L338.706 186.777C338.706 186.777 337.149 234.387 337.149 234.828C337.149 234.828 333.9 236.115 334.449 239.517L335.349 244.314C354.906 248.814 374.283 251.721 394.002 244.458L396.243 206.532L403.2 160.2L387.333 153.45L384.633 147.15L368.199 164.853L363.996 153.423L364.113 149.112L360.135 153.432L340.875 156.6L316.881 176.049L309.015 169.686L297.144 186.174L310.644 199.8C314.063 200.723 317.694 200.466 320.949 199.071Z" fill="#FDB640"/>
<path d="M365.787 162.756C365.272 163.047 364.868 163.499 364.635 164.043C364.389 164.667 364.27 165.334 364.284 166.005C364.328 166.921 364.2 167.837 363.906 168.705L363.708 169.173L363.51 168.705C362.977 167.368 362.556 165.989 362.25 164.583C361.575 161.667 361.143 158.994 360.846 157.059C360.648 156.02 360.537 154.966 360.513 153.909C360.8 154.926 361.023 155.96 361.179 157.005C361.548 158.922 362.034 161.577 362.709 164.475C363.006 165.856 363.406 167.213 363.906 168.534H363.51C363.788 167.726 363.928 166.877 363.924 166.023C363.934 165.313 364.097 164.613 364.401 163.971C364.586 163.543 364.901 163.185 365.301 162.945C365.607 162.747 365.778 162.738 365.787 162.756Z" fill="#263238"/>
<path d="M386.442 155.637C386.298 155.921 386.116 156.184 385.902 156.42C385.524 156.906 385.002 157.599 384.282 158.445C382.896 160.137 380.97 162.45 378.81 164.988L375.372 169.002L375.111 169.308L375.012 168.912C374.517 166.959 374.112 165.312 373.86 164.142C373.752 163.566 373.428 163.242 373.113 163.242C372.959 163.234 372.807 163.278 372.681 163.368C372.681 163.368 372.744 163.134 373.113 163.107C373.223 163.106 373.333 163.127 373.435 163.169C373.537 163.21 373.629 163.272 373.707 163.35C373.897 163.564 374.032 163.82 374.103 164.097C374.436 165.249 374.895 166.878 375.417 168.831L375.057 168.741L378.45 164.7C380.61 162.162 382.581 159.885 384.03 158.247C384.75 157.428 385.344 156.771 385.758 156.321C385.957 156.066 386.187 155.836 386.442 155.637Z" fill="#263238"/>
<path d="M362.7 230.166C362.66 229.965 362.645 229.759 362.655 229.554C362.655 229.113 362.655 228.537 362.655 227.826C362.655 226.323 362.655 224.145 362.655 221.454C362.718 216.054 362.97 208.647 363.555 200.466C364.14 192.285 365.022 184.887 365.76 179.559C366.129 176.859 366.453 174.744 366.705 173.259L366.993 171.558C367.028 171.358 367.073 171.16 367.128 170.964C367.154 171.164 367.154 171.367 367.128 171.567C367.074 172.008 367.002 172.584 366.921 173.286C366.723 174.834 366.453 176.976 366.12 179.586C365.472 184.923 364.671 192.303 364.059 200.484C363.447 208.665 363.159 216.072 362.988 221.445C362.925 224.091 362.88 226.251 362.844 227.808C362.844 228.522 362.826 229.098 362.79 229.536C362.774 229.748 362.744 229.958 362.7 230.166Z" fill="#263238"/>
<path d="M358.2 241.092C357.805 239.799 357.665 238.442 357.786 237.096C357.738 235.751 357.877 234.406 358.2 233.1C358.327 234.432 358.327 235.773 358.2 237.105C358.146 239.301 358.29 241.074 358.2 241.092Z" fill="#263238"/>
<path d="M381.024 227.997C380.564 228.219 380.085 228.399 379.593 228.537C378.693 228.861 377.289 229.293 375.597 229.788C371.173 231.063 366.685 232.106 362.151 232.911C357.62 233.712 353.051 234.279 348.462 234.612C346.662 234.729 345.267 234.801 344.277 234.819C343.768 234.862 343.256 234.862 342.747 234.819C343.248 234.72 343.757 234.663 344.268 234.648L348.435 234.297C351.936 233.973 356.778 233.397 362.07 232.497C367.362 231.597 372.105 230.4 375.507 229.5L379.539 228.402C380.024 228.233 380.52 228.098 381.024 227.997Z" fill="#263238"/>
<path d="M338.652 197.685C338.526 197.685 338.445 191.061 338.472 182.898C338.499 174.735 338.634 168.111 338.76 168.111C338.886 168.111 338.967 174.735 338.94 182.898C338.913 191.061 338.787 197.685 338.652 197.685Z" fill="#263238"/>
<g opacity="0.3">
<path opacity="0.3" d="M369.729 166.446C370.215 166.429 370.692 166.575 371.084 166.863C371.476 167.15 371.76 167.561 371.889 168.03C372.069 168.993 371.934 170.01 372.186 170.964C372.438 171.918 373.311 172.845 374.274 172.647C374.847 172.458 375.335 172.072 375.651 171.558C377.541 168.999 379.056 166.184 380.151 163.197C380.151 163.269 375.165 168.921 375.165 168.921C374.98 167.492 374.604 166.093 374.049 164.763C373.887 164.331 373.689 163.593 373.275 163.404C372.6 163.089 371.7 164.079 371.25 164.682C370.79 165.292 370.268 165.853 369.693 166.356" fill="black"/>
</g>
<g opacity="0.3">
<path opacity="0.3" d="M361.602 161.307C361.692 164.472 362.3 167.6 363.402 170.568C363.498 170.87 363.664 171.145 363.888 171.369C364.002 171.487 364.152 171.565 364.315 171.589C364.478 171.614 364.644 171.584 364.788 171.504C365.151 170.896 365.453 170.254 365.688 169.587C366.147 168.3 368.019 168.183 368.019 168.183C367.707 166.729 367.298 165.298 366.795 163.899C366.705 163.668 366.544 163.472 366.335 163.338C366.127 163.204 365.882 163.139 365.634 163.152C365.31 163.26 365.02 163.453 364.795 163.711C364.57 163.969 364.419 164.283 364.356 164.619C364.077 166.923 364.113 167.985 363.771 168.795C362.871 166.329 362.187 163.395 361.611 161.226" fill="black"/>
</g>
<g opacity="0.3">
<path opacity="0.3" d="M375.408 229.5C375.621 229.347 375.802 229.154 375.939 228.931C376.076 228.707 376.168 228.459 376.208 228.2C376.248 227.941 376.236 227.677 376.173 227.423C376.11 227.168 375.997 226.929 375.84 226.719C375.505 226.31 375.069 225.996 374.574 225.81C374.079 225.623 373.545 225.571 373.023 225.657C371.983 225.838 371.005 226.277 370.179 226.935C369.324 227.556 368.541 228.258 367.641 228.807C365.436 230.166 362.754 230.472 360.162 230.517C357.574 230.41 354.982 230.524 352.413 230.859C349.875 231.354 347.337 232.659 346.113 234.945C346.104 234.9 368.235 233.325 375.408 229.5Z" fill="black"/>
</g>
<path d="M403.2 160.2C403.2 160.2 409.896 164.97 411.516 169.29C413.136 173.61 419.121 203.283 420.093 208.35C421.326 214.722 421.362 222.606 412.191 225.603C408.78 226.71 387.891 225.009 387.891 225.009L388.575 210.168L399.852 210.591C399.852 210.591 399.177 209.592 400.797 208.386L397.197 189.081C397.197 189.081 398.52 168.579 398.682 168.093C398.844 167.607 403.2 160.2 403.2 160.2Z" fill="#FDB640"/>
<path d="M403.56 160.713C401.579 161.528 399.79 162.751 398.311 164.301C396.832 165.852 395.695 167.695 394.974 169.713C395.023 169.088 395.188 168.478 395.46 167.913C396.654 165.003 398.905 162.653 401.76 161.334C402.318 161.021 402.928 160.81 403.56 160.713Z" fill="#263238"/>
<path d="M407.214 213.597C407.142 213.597 406.989 213.102 406.539 212.409C405.94 211.509 405.158 210.745 404.244 210.168C403.347 209.566 402.331 209.164 401.265 208.989C400.446 208.872 399.924 208.989 399.906 208.89C400.336 208.671 400.824 208.593 401.301 208.665C402.447 208.75 403.551 209.132 404.505 209.772C405.475 210.384 406.274 211.233 406.827 212.238C407.087 212.643 407.221 213.116 407.214 213.597Z" fill="#263238"/>
<path d="M395.1 177.354C395.237 177.74 395.34 178.138 395.406 178.542C395.595 179.442 395.82 180.513 396.099 181.827C396.657 184.608 397.395 188.451 398.178 192.699C398.961 196.947 399.654 200.799 400.131 203.598C400.347 204.93 400.527 206.037 400.662 206.91C400.75 207.312 400.795 207.722 400.797 208.134C400.659 207.748 400.554 207.35 400.482 206.946C400.302 206.046 400.077 204.975 399.798 203.661C399.24 200.88 398.502 197.037 397.719 192.789C396.936 188.541 396.243 184.689 395.766 181.89C395.55 180.558 395.37 179.451 395.235 178.578C395.147 178.176 395.102 177.766 395.1 177.354Z" fill="#263238"/>
<path d="M387.9 225C387.865 224.617 387.865 224.231 387.9 223.848C387.9 223.029 387.9 221.976 387.972 220.707C388.053 218.007 388.188 214.326 388.377 210.141V209.916H388.611L390.465 209.988L399.879 210.393H399.942L399.987 210.438C401.388 211.579 402.455 213.078 403.074 214.776C403.24 215.245 403.369 215.727 403.461 216.216C403.504 216.386 403.519 216.563 403.506 216.738C403.452 216.738 403.344 216.027 402.867 214.857C402.196 213.238 401.121 211.819 399.744 210.735L399.861 210.78L390.447 210.456L388.593 210.375L388.827 210.159C388.638 214.335 388.44 218.052 388.278 220.707C388.188 221.976 388.116 223.029 388.062 223.848C388.051 224.237 387.997 224.623 387.9 225Z" fill="#263238"/>
<path d="M371.421 207.054L362.7 189.252C362.409 188.66 361.958 188.162 361.398 187.813C360.838 187.465 360.192 187.281 359.532 187.281H337.563C337.377 187.28 337.194 187.328 337.032 187.419C336.869 187.511 336.734 187.643 336.639 187.803C336.543 187.963 336.491 188.145 336.488 188.331C336.484 188.518 336.529 188.702 336.618 188.865L351.468 216.603C351.675 216.984 351.981 217.301 352.353 217.523C352.725 217.745 353.15 217.862 353.583 217.863H376.344L371.421 207.054Z" fill="#455A64"/>
<path d="M336.762 189H337.203H338.454H343.08L358.317 188.874C359.022 188.868 359.717 189.035 360.342 189.36C360.918 189.727 361.385 190.244 361.692 190.854C362.331 192.069 362.862 193.338 363.42 194.454L366.336 200.664L368.325 204.831C368.55 205.29 368.739 205.659 368.892 205.956C368.948 206.091 369.02 206.218 369.108 206.334C369.079 206.19 369.031 206.051 368.964 205.92C368.838 205.614 368.667 205.236 368.469 204.768C368.01 203.715 367.371 202.284 366.597 200.538C365.823 198.792 364.797 196.632 363.762 194.301C363.213 193.122 362.7 191.889 362.043 190.62C361.704 189.946 361.187 189.376 360.549 188.973C359.868 188.609 359.107 188.421 358.335 188.424C352.359 188.424 346.986 188.595 343.035 188.676L338.418 188.802L337.158 188.856C337.02 188.884 336.886 188.933 336.762 189Z" fill="#263238"/>
<path d="M350.289 192.897C350.185 192.936 350.091 192.998 350.015 193.079C349.939 193.16 349.882 193.257 349.85 193.363C349.818 193.47 349.81 193.582 349.829 193.692C349.847 193.801 349.891 193.905 349.956 193.995C350.077 194.183 350.255 194.328 350.464 194.407C350.673 194.486 350.902 194.497 351.117 194.436C351.262 194.404 351.395 194.332 351.501 194.229C351.608 194.126 351.684 193.995 351.72 193.851C351.734 193.633 351.677 193.417 351.557 193.235C351.436 193.053 351.26 192.915 351.054 192.843C350.798 192.798 350.536 192.817 350.289 192.897Z" fill="white"/>
<path d="M388.341 210.771L382.887 210.24C382.887 210.24 380.412 207.432 379.44 206.586C378.468 205.74 372.906 202.986 372.906 202.986C372.906 202.986 370.017 199.917 369.639 199.962C369.261 200.007 368.073 200.376 368.586 201.897C369.073 203.41 369.713 204.869 370.494 206.253L359.505 207.819C359.162 207.862 358.832 207.98 358.539 208.165C358.247 208.35 357.999 208.598 357.813 208.89C357.57 209.295 357.498 209.718 358.047 209.907C360.035 210.365 362.049 210.708 364.077 210.933L361.917 210.645C361.917 210.645 361.71 212.697 363.15 213.489C363.703 213.737 364.221 214.058 364.689 214.443C364.817 215.36 365.142 216.238 365.643 217.017C366.309 217.71 372.897 220.158 372.897 220.158C372.897 220.158 377.01 220.86 378.999 220.518L387.909 221.877L388.341 210.771Z" fill="#FFBE9D"/>
<path d="M369.432 206.451C370.478 206.523 371.527 206.523 372.573 206.451C373.622 206.516 374.676 206.44 375.705 206.226C374.668 206.047 373.614 205.989 372.564 206.055C371.505 205.998 370.444 206.132 369.432 206.451Z" fill="#EB996E"/>
<path d="M371.493 211.158C369.981 210.807 368.427 210.667 366.876 210.744C365.598 210.744 364.446 210.744 363.609 210.744C363.158 210.713 362.706 210.731 362.259 210.798C362.688 210.954 363.143 211.028 363.6 211.014C364.446 211.077 365.598 211.104 366.876 211.113C369.423 211.122 371.475 211.257 371.493 211.158Z" fill="#EB996E"/>
<path d="M371.925 214.767C371.925 214.65 370.305 214.767 368.325 214.686C366.345 214.605 364.725 214.29 364.725 214.407C365.873 214.853 367.094 215.082 368.325 215.082C369.534 215.205 370.756 215.098 371.925 214.767Z" fill="#EB996E"/>
<path d="M371.745 218.88C371.853 218.88 371.961 218.439 371.988 217.872C372.015 217.305 371.943 216.855 371.835 216.846C371.727 216.837 371.619 217.296 371.592 217.854C371.565 218.412 371.637 218.88 371.745 218.88Z" fill="#EB996E"/>
<path d="M372.15 213.93C372.258 213.93 372.276 213.543 372.42 213.138C372.564 212.733 372.771 212.445 372.699 212.355C372.627 212.265 372.222 212.499 372.051 213.012C371.88 213.525 372.051 213.957 372.15 213.93Z" fill="#EB996E"/>
<path d="M372.825 208.935C372.942 208.935 373.023 208.692 373.122 208.413C373.221 208.134 373.311 207.891 373.23 207.819C373.149 207.747 372.879 207.927 372.753 208.278C372.627 208.629 372.717 208.944 372.825 208.935Z" fill="#EB996E"/>
<path d="M95.2756 126.273V135H93.9588V126.273H95.2756ZM98.2451 131.114V135H96.9709V128.455H98.1939V129.52H98.2749C98.4255 129.173 98.6613 128.895 98.9823 128.685C99.3061 128.474 99.7138 128.369 100.205 128.369C100.651 128.369 101.042 128.463 101.377 128.651C101.712 128.835 101.972 129.111 102.157 129.477C102.342 129.844 102.434 130.297 102.434 130.837V135H101.16V130.99C101.16 130.516 101.036 130.145 100.789 129.878C100.542 129.608 100.202 129.473 99.7706 129.473C99.4752 129.473 99.2124 129.537 98.9823 129.665C98.755 129.793 98.5746 129.98 98.4411 130.227C98.3104 130.472 98.2451 130.767 98.2451 131.114ZM109.388 128.455L107.014 135H105.651L103.273 128.455H104.641L106.298 133.491H106.367L108.02 128.455H109.388ZM113 135.132C112.386 135.132 111.851 134.991 111.393 134.71C110.936 134.429 110.581 134.036 110.328 133.53C110.075 133.024 109.949 132.433 109.949 131.757C109.949 131.078 110.075 130.484 110.328 129.976C110.581 129.467 110.936 129.072 111.393 128.791C111.851 128.51 112.386 128.369 113 128.369C113.613 128.369 114.149 128.51 114.606 128.791C115.064 129.072 115.419 129.467 115.672 129.976C115.924 130.484 116.051 131.078 116.051 131.757C116.051 132.433 115.924 133.024 115.672 133.53C115.419 134.036 115.064 134.429 114.606 134.71C114.149 134.991 113.613 135.132 113 135.132ZM113.004 134.062C113.402 134.062 113.731 133.957 113.993 133.747C114.254 133.537 114.447 133.257 114.572 132.908C114.7 132.558 114.764 132.173 114.764 131.753C114.764 131.335 114.7 130.952 114.572 130.602C114.447 130.25 114.254 129.967 113.993 129.754C113.731 129.541 113.402 129.435 113.004 129.435C112.603 129.435 112.271 129.541 112.007 129.754C111.745 129.967 111.551 130.25 111.423 130.602C111.298 130.952 111.236 131.335 111.236 131.753C111.236 132.173 111.298 132.558 111.423 132.908C111.551 133.257 111.745 133.537 112.007 133.747C112.271 133.957 112.603 134.062 113.004 134.062ZM117.353 135V128.455H118.627V135H117.353ZM117.997 127.445C117.775 127.445 117.585 127.371 117.426 127.223C117.269 127.072 117.191 126.893 117.191 126.686C117.191 126.476 117.269 126.297 117.426 126.149C117.585 125.999 117.775 125.923 117.997 125.923C118.218 125.923 118.407 125.999 118.563 126.149C118.722 126.297 118.802 126.476 118.802 126.686C118.802 126.893 118.722 127.072 118.563 127.223C118.407 127.371 118.218 127.445 117.997 127.445ZM122.978 135.132C122.345 135.132 121.8 134.989 121.342 134.702C120.888 134.412 120.538 134.013 120.294 133.504C120.05 132.996 119.927 132.413 119.927 131.757C119.927 131.092 120.052 130.506 120.302 129.997C120.552 129.486 120.905 129.087 121.359 128.8C121.814 128.513 122.349 128.369 122.966 128.369C123.463 128.369 123.906 128.462 124.295 128.646C124.684 128.828 124.998 129.084 125.237 129.413C125.478 129.743 125.622 130.128 125.667 130.568H124.427C124.359 130.261 124.203 129.997 123.959 129.776C123.717 129.554 123.393 129.443 122.987 129.443C122.632 129.443 122.321 129.537 122.054 129.724C121.79 129.909 121.584 130.173 121.436 130.517C121.288 130.858 121.214 131.261 121.214 131.727C121.214 132.205 121.287 132.616 121.432 132.963C121.576 133.31 121.781 133.578 122.045 133.768C122.312 133.959 122.626 134.054 122.987 134.054C123.228 134.054 123.447 134.01 123.643 133.922C123.842 133.831 124.008 133.702 124.142 133.534C124.278 133.366 124.373 133.165 124.427 132.929H125.667C125.622 133.352 125.484 133.73 125.254 134.062C125.024 134.395 124.716 134.656 124.329 134.847C123.946 135.037 123.496 135.132 122.978 135.132ZM129.731 135.132C129.086 135.132 128.531 134.994 128.065 134.719C127.602 134.44 127.244 134.05 126.991 133.547C126.741 133.041 126.616 132.449 126.616 131.77C126.616 131.099 126.741 130.509 126.991 129.997C127.244 129.486 127.596 129.087 128.048 128.8C128.502 128.513 129.034 128.369 129.642 128.369C130.011 128.369 130.369 128.43 130.715 128.553C131.062 128.675 131.373 128.866 131.649 129.128C131.924 129.389 132.142 129.729 132.301 130.146C132.46 130.561 132.539 131.065 132.539 131.659V132.111H127.336V131.156H131.291C131.291 130.821 131.222 130.524 131.086 130.266C130.95 130.004 130.758 129.798 130.511 129.648C130.267 129.497 129.98 129.422 129.65 129.422C129.292 129.422 128.98 129.51 128.713 129.686C128.448 129.859 128.244 130.087 128.099 130.368C127.957 130.646 127.886 130.949 127.886 131.276V132.021C127.886 132.459 127.963 132.831 128.116 133.138C128.272 133.445 128.49 133.679 128.768 133.841C129.046 134 129.372 134.08 129.744 134.08C129.985 134.08 130.205 134.045 130.404 133.977C130.603 133.906 130.775 133.801 130.92 133.662C131.065 133.523 131.176 133.351 131.252 133.146L132.458 133.364C132.362 133.719 132.188 134.03 131.938 134.297C131.691 134.561 131.38 134.767 131.005 134.915C130.633 135.06 130.208 135.132 129.731 135.132ZM138.738 130.053L137.583 130.257C137.535 130.109 137.458 129.969 137.353 129.835C137.251 129.702 137.111 129.592 136.935 129.507C136.759 129.422 136.539 129.379 136.275 129.379C135.914 129.379 135.613 129.46 135.371 129.622C135.13 129.781 135.009 129.987 135.009 130.24C135.009 130.459 135.09 130.635 135.252 130.768C135.414 130.902 135.675 131.011 136.036 131.097L137.076 131.335C137.678 131.474 138.127 131.689 138.422 131.979C138.718 132.268 138.866 132.645 138.866 133.108C138.866 133.5 138.752 133.849 138.525 134.156C138.3 134.46 137.986 134.699 137.583 134.872C137.182 135.045 136.718 135.132 136.189 135.132C135.457 135.132 134.859 134.976 134.395 134.663C133.932 134.348 133.648 133.901 133.543 133.321L134.775 133.134C134.851 133.455 135.009 133.697 135.248 133.862C135.486 134.024 135.797 134.105 136.181 134.105C136.599 134.105 136.932 134.018 137.182 133.845C137.432 133.669 137.557 133.455 137.557 133.202C137.557 132.997 137.481 132.825 137.327 132.686C137.177 132.547 136.945 132.442 136.633 132.371L135.525 132.128C134.914 131.989 134.462 131.767 134.17 131.463C133.88 131.159 133.735 130.774 133.735 130.308C133.735 129.922 133.843 129.584 134.059 129.294C134.275 129.004 134.573 128.778 134.954 128.616C135.334 128.452 135.77 128.369 136.262 128.369C136.969 128.369 137.526 128.523 137.932 128.83C138.339 129.134 138.607 129.541 138.738 130.053Z" fill="#323232"/>
<path d="M242.413 134H241.249L243.866 126.727H245.134L247.751 134H246.586L244.53 128.048H244.473L242.413 134ZM242.609 131.152H246.387V132.075H242.609V131.152ZM250.67 134.107C250.229 134.107 249.836 133.994 249.491 133.769C249.147 133.542 248.878 133.219 248.681 132.8C248.487 132.378 248.39 131.873 248.39 131.283C248.39 130.694 248.488 130.19 248.685 129.771C248.884 129.352 249.156 129.031 249.501 128.808C249.847 128.586 250.239 128.474 250.677 128.474C251.015 128.474 251.288 128.531 251.494 128.645C251.702 128.756 251.863 128.886 251.977 129.036C252.093 129.185 252.183 129.316 252.246 129.43H252.31V126.727H253.372V134H252.335V133.151H252.246C252.183 133.267 252.09 133.4 251.969 133.549C251.851 133.698 251.688 133.828 251.479 133.94C251.271 134.051 251.001 134.107 250.67 134.107ZM250.904 133.201C251.21 133.201 251.468 133.121 251.678 132.96C251.891 132.796 252.052 132.57 252.161 132.281C252.272 131.992 252.328 131.656 252.328 131.273C252.328 130.894 252.274 130.562 252.165 130.278C252.056 129.994 251.896 129.773 251.685 129.614C251.475 129.456 251.214 129.376 250.904 129.376C250.585 129.376 250.318 129.459 250.105 129.625C249.892 129.791 249.731 130.017 249.622 130.303C249.516 130.59 249.462 130.913 249.462 131.273C249.462 131.637 249.517 131.965 249.626 132.256C249.735 132.548 249.896 132.778 250.109 132.949C250.324 133.117 250.589 133.201 250.904 133.201ZM256.93 134.107C256.489 134.107 256.096 133.994 255.751 133.769C255.407 133.542 255.137 133.219 254.941 132.8C254.747 132.378 254.65 131.873 254.65 131.283C254.65 130.694 254.748 130.19 254.944 129.771C255.143 129.352 255.416 129.031 255.761 128.808C256.107 128.586 256.499 128.474 256.937 128.474C257.275 128.474 257.547 128.531 257.753 128.645C257.962 128.756 258.123 128.886 258.236 129.036C258.352 129.185 258.442 129.316 258.506 129.43H258.57V126.727H259.632V134H258.595V133.151H258.506C258.442 133.267 258.35 133.4 258.229 133.549C258.111 133.698 257.948 133.828 257.739 133.94C257.531 134.051 257.261 134.107 256.93 134.107ZM257.164 133.201C257.469 133.201 257.727 133.121 257.938 132.96C258.151 132.796 258.312 132.57 258.421 132.281C258.532 131.992 258.588 131.656 258.588 131.273C258.588 130.894 258.533 130.562 258.425 130.278C258.316 129.994 258.156 129.773 257.945 129.614C257.734 129.456 257.474 129.376 257.164 129.376C256.844 129.376 256.578 129.459 256.365 129.625C256.152 129.791 255.991 130.017 255.882 130.303C255.775 130.59 255.722 130.913 255.722 131.273C255.722 131.637 255.777 131.965 255.885 132.256C255.994 132.548 256.155 132.778 256.368 132.949C256.584 133.117 256.849 133.201 257.164 133.201ZM264.976 126.727V134H263.879V126.727H264.976ZM267.551 130.761V134H266.489V128.545H267.508V129.433H267.576C267.701 129.144 267.898 128.912 268.165 128.737C268.435 128.562 268.775 128.474 269.184 128.474C269.556 128.474 269.882 128.553 270.161 128.709C270.44 128.863 270.657 129.092 270.811 129.398C270.965 129.703 271.042 130.081 271.042 130.531V134H269.98V130.658C269.98 130.263 269.877 129.954 269.671 129.732C269.465 129.507 269.182 129.394 268.822 129.394C268.576 129.394 268.357 129.447 268.165 129.554C267.976 129.661 267.826 129.817 267.714 130.023C267.605 130.226 267.551 130.473 267.551 130.761ZM276.937 128.545L274.959 134H273.822L271.841 128.545H272.981L274.362 132.743H274.419L275.797 128.545H276.937ZM280.047 134.11C279.535 134.11 279.089 133.993 278.708 133.759C278.327 133.524 278.031 133.196 277.82 132.775C277.609 132.353 277.504 131.861 277.504 131.298C277.504 130.732 277.609 130.237 277.82 129.813C278.031 129.389 278.327 129.06 278.708 128.826C279.089 128.592 279.535 128.474 280.047 128.474C280.558 128.474 281.004 128.592 281.385 128.826C281.766 129.06 282.062 129.389 282.273 129.813C282.484 130.237 282.589 130.732 282.589 131.298C282.589 131.861 282.484 132.353 282.273 132.775C282.062 133.196 281.766 133.524 281.385 133.759C281.004 133.993 280.558 134.11 280.047 134.11ZM280.05 133.219C280.382 133.219 280.656 133.131 280.874 132.956C281.092 132.781 281.253 132.548 281.357 132.256C281.463 131.965 281.517 131.644 281.517 131.294C281.517 130.946 281.463 130.626 281.357 130.335C281.253 130.042 281.092 129.806 280.874 129.629C280.656 129.451 280.382 129.362 280.05 129.362C279.716 129.362 279.439 129.451 279.219 129.629C279.001 129.806 278.839 130.042 278.733 130.335C278.628 130.626 278.576 130.946 278.576 131.294C278.576 131.644 278.628 131.965 278.733 132.256C278.839 132.548 279.001 132.781 279.219 132.956C279.439 133.131 279.716 133.219 280.05 133.219ZM283.774 134V128.545H284.836V134H283.774ZM284.311 127.704C284.126 127.704 283.967 127.642 283.835 127.519C283.704 127.394 283.639 127.245 283.639 127.072C283.639 126.897 283.704 126.747 283.835 126.624C283.967 126.499 284.126 126.436 284.311 126.436C284.495 126.436 284.653 126.499 284.783 126.624C284.915 126.747 284.982 126.897 284.982 127.072C284.982 127.245 284.915 127.394 284.783 127.519C284.653 127.642 284.495 127.704 284.311 127.704ZM288.562 134.11C288.034 134.11 287.58 133.991 287.199 133.751C286.82 133.51 286.529 133.177 286.325 132.754C286.121 132.33 286.02 131.844 286.02 131.298C286.02 130.744 286.124 130.255 286.332 129.831C286.54 129.405 286.834 129.072 287.213 128.833C287.592 128.594 288.038 128.474 288.551 128.474C288.966 128.474 289.335 128.551 289.659 128.705C289.984 128.857 290.245 129.07 290.444 129.344C290.645 129.619 290.765 129.94 290.803 130.307H289.77C289.713 130.051 289.583 129.831 289.379 129.646C289.178 129.462 288.908 129.369 288.569 129.369C288.273 129.369 288.014 129.447 287.792 129.604C287.571 129.758 287.4 129.978 287.277 130.264C287.154 130.548 287.092 130.884 287.092 131.273C287.092 131.67 287.152 132.014 287.273 132.303C287.394 132.591 287.564 132.815 287.784 132.974C288.007 133.132 288.269 133.212 288.569 133.212C288.77 133.212 288.953 133.175 289.116 133.102C289.282 133.026 289.42 132.918 289.532 132.778C289.645 132.639 289.725 132.471 289.77 132.274H290.803C290.765 132.627 290.65 132.942 290.458 133.219C290.267 133.496 290.01 133.714 289.688 133.872C289.368 134.031 288.993 134.11 288.562 134.11ZM294.289 134.11C293.752 134.11 293.289 133.995 292.901 133.766C292.515 133.534 292.217 133.208 292.006 132.789C291.798 132.368 291.693 131.874 291.693 131.308C291.693 130.75 291.798 130.257 292.006 129.831C292.217 129.405 292.51 129.072 292.887 128.833C293.265 128.594 293.708 128.474 294.215 128.474C294.522 128.474 294.821 128.525 295.11 128.627C295.398 128.729 295.658 128.889 295.887 129.107C296.117 129.324 296.298 129.607 296.431 129.955C296.563 130.301 296.629 130.721 296.629 131.216V131.592H292.294V130.797H295.589C295.589 130.518 295.532 130.27 295.419 130.055C295.305 129.837 295.145 129.665 294.939 129.54C294.735 129.414 294.496 129.352 294.222 129.352C293.923 129.352 293.663 129.425 293.441 129.572C293.22 129.716 293.05 129.906 292.929 130.14C292.811 130.372 292.752 130.624 292.752 130.896V131.518C292.752 131.882 292.816 132.192 292.943 132.448C293.074 132.704 293.255 132.899 293.487 133.034C293.719 133.167 293.99 133.233 294.3 133.233C294.501 133.233 294.685 133.205 294.85 133.148C295.016 133.089 295.159 133.001 295.28 132.885C295.401 132.769 295.493 132.626 295.557 132.455L296.562 132.636C296.481 132.932 296.337 133.192 296.129 133.414C295.923 133.634 295.664 133.806 295.351 133.929C295.041 134.05 294.687 134.11 294.289 134.11ZM301.895 129.877L300.933 130.048C300.892 129.924 300.828 129.807 300.741 129.696C300.656 129.585 300.54 129.494 300.393 129.423C300.246 129.352 300.063 129.316 299.842 129.316C299.542 129.316 299.291 129.384 299.089 129.518C298.888 129.651 298.788 129.823 298.788 130.033C298.788 130.216 298.855 130.362 298.99 130.474C299.125 130.585 299.343 130.676 299.643 130.747L300.51 130.946C301.012 131.062 301.386 131.241 301.632 131.482C301.878 131.724 302.001 132.037 302.001 132.423C302.001 132.75 301.907 133.041 301.717 133.297C301.53 133.55 301.269 133.749 300.933 133.893C300.599 134.038 300.212 134.11 299.771 134.11C299.161 134.11 298.662 133.98 298.276 133.719C297.89 133.457 297.654 133.084 297.566 132.601L298.592 132.445C298.656 132.712 298.788 132.915 298.987 133.052C299.185 133.187 299.445 133.254 299.764 133.254C300.112 133.254 300.39 133.182 300.599 133.038C300.807 132.891 300.911 132.712 300.911 132.501C300.911 132.331 300.847 132.188 300.719 132.072C300.594 131.956 300.401 131.868 300.141 131.809L299.217 131.607C298.708 131.491 298.332 131.306 298.088 131.053C297.847 130.799 297.726 130.478 297.726 130.09C297.726 129.768 297.816 129.487 297.996 129.245C298.176 129.004 298.424 128.815 298.741 128.68C299.059 128.543 299.422 128.474 299.832 128.474C300.421 128.474 300.885 128.602 301.224 128.858C301.562 129.111 301.786 129.451 301.895 129.877Z" fill="white"/>
<path d="M316.652 130.85H313.952V133.55H313.052V130.85H310.352V129.95H313.052V127.25H313.952V129.95H316.652V130.85Z" fill="white"/>
</svg>
